<svg xmlns="http://www.w3.org/2000/svg" viewBox="0 0 72 108">
  <rect fill="white" stroke="#555" stroke-width="0.5" x="1" y="1" width="70" height="106" rx="3" ry="3"/>
  <path fill="#E30613" transform="translate(5.000,2.500)" d="M0.44 9.35Q0.36 9.35 0.3 9.29Q0.24 9.23 0.24 9.15Q0.24 9.1 0.26 9.04L2.79 2.55Q2.83 2.4499999999999993 2.895 2.3999999999999995Q2.96 2.3499999999999996 3.08 2.3499999999999996H3.42Q3.54 2.3499999999999996 3.605 2.3999999999999995Q3.67 2.4499999999999993 3.71 2.55L6.24 9.04Q6.26 9.1 6.26 9.15Q6.26 9.23 6.2 9.29Q6.140000000000001 9.35 6.0600000000000005 9.35H5.86Q5.76 9.35 5.71 9.295Q5.66 9.24 5.64 9.2L5.0200000000000005 7.6H1.48L0.86 9.2Q0.85 9.24 0.7949999999999999 9.295Q0.74 9.35 0.64 9.35ZM1.72 7.0H4.78L3.25 3.0599999999999996Z"/>
  <path fill="#E30613" transform="translate(10.000,19.500) scale(0.4545)" d="M0,-10 L9,0 L0,10 L-9,0 Z"/>
  <path fill="#E30613" transform="translate(36.000,54.000) scale(1.6364)" d="M0,-10 L9,0 L0,10 L-9,0 Z"/>
  <g transform="translate(72,108) rotate(180)">
  <path fill="#E30613" transform="translate(5.000,2.500)" d="M0.44 9.35Q0.36 9.35 0.3 9.29Q0.24 9.23 0.24 9.15Q0.24 9.1 0.26 9.04L2.79 2.55Q2.83 2.4499999999999993 2.895 2.3999999999999995Q2.96 2.3499999999999996 3.08 2.3499999999999996H3.42Q3.54 2.3499999999999996 3.605 2.3999999999999995Q3.67 2.4499999999999993 3.71 2.55L6.24 9.04Q6.26 9.1 6.26 9.15Q6.26 9.23 6.2 9.29Q6.140000000000001 9.35 6.0600000000000005 9.35H5.86Q5.76 9.35 5.71 9.295Q5.66 9.24 5.64 9.2L5.0200000000000005 7.6H1.48L0.86 9.2Q0.85 9.24 0.7949999999999999 9.295Q0.74 9.35 0.64 9.35ZM1.72 7.0H4.78L3.25 3.0599999999999996Z"/>
  <path fill="#E30613" transform="translate(10.000,19.500) scale(0.4545)" d="M0,-10 L9,0 L0,10 L-9,0 Z"/>
  </g>
</svg>
