<svg xmlns="http://www.w3.org/2000/svg" viewBox="0 0 72 108">
  <rect fill="white" stroke="#555" stroke-width="0.5" x="1" y="1" width="70" height="106" rx="3" ry="3"/>
  <path fill="#E30613" transform="translate(5.000,2.500)" d="M4.0600000000000005 9.35Q3.96 9.35 3.9 9.29Q3.84 9.23 3.84 9.129999999999999V7.55H0.54Q0.44 7.55 0.38 7.49Q0.32 7.43 0.32 7.33V7.17Q0.32 7.1499999999999995 0.33999999999999997 7.06Q0.36 6.97 0.43 6.869999999999999L3.47 2.5199999999999996Q3.59 2.3499999999999996 3.84 2.3499999999999996H4.25Q4.3500000000000005 2.3499999999999996 4.41 2.4099999999999997Q4.47 2.4699999999999998 4.47 2.5699999999999994V6.949999999999999H5.38Q5.48 6.949999999999999 5.540000000000001 7.01Q5.6000000000000005 7.069999999999999 5.6000000000000005 7.17V7.33Q5.6000000000000005 7.43 5.540000000000001 7.49Q5.48 7.55 5.38 7.55H4.47V9.129999999999999Q4.47 9.23 4.41 9.29Q4.3500000000000005 9.35 4.25 9.35ZM1.11 6.949999999999999H3.84V3.0599999999999996Z"/>
  <path fill="#E30613" transform="translate(10.000,19.500) scale(0.4545)" d="M0,-10 L9,0 L0,10 L-9,0 Z"/>
  <path fill="#E30613" transform="translate(36.000,54.000) scale(1.6364)" d="M0,-10 L9,0 L0,10 L-9,0 Z"/>
  <g transform="translate(72,108) rotate(180)">
  <path fill="#E30613" transform="translate(5.000,2.500)" d="M4.0600000000000005 9.35Q3.96 9.35 3.9 9.29Q3.84 9.23 3.84 9.129999999999999V7.55H0.54Q0.44 7.55 0.38 7.49Q0.32 7.43 0.32 7.33V7.17Q0.32 7.1499999999999995 0.33999999999999997 7.06Q0.36 6.97 0.43 6.869999999999999L3.47 2.5199999999999996Q3.59 2.3499999999999996 3.84 2.3499999999999996H4.25Q4.3500000000000005 2.3499999999999996 4.41 2.4099999999999997Q4.47 2.4699999999999998 4.47 2.5699999999999994V6.949999999999999H5.38Q5.48 6.949999999999999 5.540000000000001 7.01Q5.6000000000000005 7.069999999999999 5.6000000000000005 7.17V7.33Q5.6000000000000005 7.43 5.540000000000001 7.49Q5.48 7.55 5.38 7.55H4.47V9.129999999999999Q4.47 9.23 4.41 9.29Q4.3500000000000005 9.35 4.25 9.35ZM1.11 6.949999999999999H3.84V3.0599999999999996Z"/>
  <path fill="#E30613" transform="translate(10.000,19.500) scale(0.4545)" d="M0,-10 L9,0 L0,10 L-9,0 Z"/>
  </g>
</svg>
