<svg xmlns="http://www.w3.org/2000/svg" viewBox="0 0 72 108">
  <rect fill="white" stroke="#555" stroke-width="0.5" x="1" y="1" width="70" height="106" rx="3" ry="3"/>
  <path fill="#E30613" transform="translate(5.000,2.500)" d="M2.7600000000000002 9.35Q2.66 9.35 2.6 9.29Q2.54 9.23 2.54 9.129999999999999V3.17L0.75 4.55Q0.67 4.609999999999999 0.585 4.6Q0.5 4.59 0.44 4.51L0.33 4.369999999999999Q0.27 4.289999999999999 0.28 4.204999999999999Q0.29 4.119999999999999 0.37 4.06L2.5 2.42Q2.57 2.369999999999999 2.63 2.3599999999999994Q2.69 2.3499999999999996 2.7600000000000002 2.3499999999999996H2.95Q3.0500000000000003 2.3499999999999996 3.1100000000000003 2.4099999999999997Q3.17 2.4699999999999998 3.17 2.5699999999999994V9.129999999999999Q3.17 9.23 3.1100000000000003 9.29Q3.0500000000000003 9.35 2.95 9.35Z"/>
  <path fill="#E30613" transform="translate(9.380,2.500)" d="M3.08 9.45Q2.4 9.45 1.9449999999999998 9.23Q1.49 9.01 1.215 8.625Q0.9400000000000001 8.24 0.8200000000000001 7.74Q0.7000000000000001 7.24 0.68 6.6899999999999995Q0.68 6.42 0.675 6.14Q0.67 5.859999999999999 0.675 5.574999999999999Q0.68 5.289999999999999 0.68 5.01Q0.6900000000000001 4.46 0.8150000000000001 3.96Q0.9400000000000001 3.46 1.215 3.0749999999999997Q1.49 2.6899999999999995 1.9449999999999998 2.4699999999999993Q2.4 2.249999999999999 3.08 2.249999999999999Q3.7600000000000002 2.249999999999999 4.215 2.4699999999999993Q4.67 2.6899999999999995 4.945 3.0749999999999997Q5.22 3.46 5.345 3.96Q5.47 4.46 5.48 5.01Q5.49 5.289999999999999 5.49 5.574999999999999Q5.49 5.859999999999999 5.49 6.14Q5.49 6.42 5.48 6.6899999999999995Q5.47 7.24 5.345 7.74Q5.22 8.24 4.945 8.625Q4.67 9.01 4.215 9.23Q3.7600000000000002 9.45 3.08 9.45ZM3.08 8.85Q3.97 8.85 4.4 8.26Q4.83 7.67 4.8500000000000005 6.64Q4.86 6.35 4.86 6.095Q4.86 5.84 4.86 5.584999999999999Q4.86 5.329999999999999 4.8500000000000005 5.06Q4.83 4.05 4.4 3.4499999999999997Q3.97 2.8499999999999996 3.08 2.8499999999999996Q2.2 2.8499999999999996 1.7650000000000001 3.4499999999999997Q1.33 4.05 1.31 5.06Q1.31 5.329999999999999 1.3050000000000002 5.584999999999999Q1.3 5.84 1.3050000000000002 6.095Q1.31 6.35 1.31 6.64Q1.33 7.67 1.7650000000000001 8.26Q2.2 8.85 3.08 8.85Z"/>
  <path fill="#E30613" transform="translate(10.000,19.500) scale(0.4545)" d="M0,9 C-3,6 -10,1 -10,-4 C-10,-9 -6,-12 -2,-12 C-1,-12 0,-11 0,-10 C0,-11 1,-12 2,-12 C6,-12 10,-9 10,-4 C10,1 3,6 0,9 Z"/>
  <path fill="#E30613" transform="translate(36.000,54.000) scale(1.6364)" d="M0,9 C-3,6 -10,1 -10,-4 C-10,-9 -6,-12 -2,-12 C-1,-12 0,-11 0,-10 C0,-11 1,-12 2,-12 C6,-12 10,-9 10,-4 C10,1 3,6 0,9 Z"/>
  <g transform="translate(72,108) rotate(180)">
  <path fill="#E30613" transform="translate(5.000,2.500)" d="M2.7600000000000002 9.35Q2.66 9.35 2.6 9.29Q2.54 9.23 2.54 9.129999999999999V3.17L0.75 4.55Q0.67 4.609999999999999 0.585 4.6Q0.5 4.59 0.44 4.51L0.33 4.369999999999999Q0.27 4.289999999999999 0.28 4.204999999999999Q0.29 4.119999999999999 0.37 4.06L2.5 2.42Q2.57 2.369999999999999 2.63 2.3599999999999994Q2.69 2.3499999999999996 2.7600000000000002 2.3499999999999996H2.95Q3.0500000000000003 2.3499999999999996 3.1100000000000003 2.4099999999999997Q3.17 2.4699999999999998 3.17 2.5699999999999994V9.129999999999999Q3.17 9.23 3.1100000000000003 9.29Q3.0500000000000003 9.35 2.95 9.35Z"/>
  <path fill="#E30613" transform="translate(9.380,2.500)" d="M3.08 9.45Q2.4 9.45 1.9449999999999998 9.23Q1.49 9.01 1.215 8.625Q0.9400000000000001 8.24 0.8200000000000001 7.74Q0.7000000000000001 7.24 0.68 6.6899999999999995Q0.68 6.42 0.675 6.14Q0.67 5.859999999999999 0.675 5.574999999999999Q0.68 5.289999999999999 0.68 5.01Q0.6900000000000001 4.46 0.8150000000000001 3.96Q0.9400000000000001 3.46 1.215 3.0749999999999997Q1.49 2.6899999999999995 1.9449999999999998 2.4699999999999993Q2.4 2.249999999999999 3.08 2.249999999999999Q3.7600000000000002 2.249999999999999 4.215 2.4699999999999993Q4.67 2.6899999999999995 4.945 3.0749999999999997Q5.22 3.46 5.345 3.96Q5.47 4.46 5.48 5.01Q5.49 5.289999999999999 5.49 5.574999999999999Q5.49 5.859999999999999 5.49 6.14Q5.49 6.42 5.48 6.6899999999999995Q5.47 7.24 5.345 7.74Q5.22 8.24 4.945 8.625Q4.67 9.01 4.215 9.23Q3.7600000000000002 9.45 3.08 9.45ZM3.08 8.85Q3.97 8.85 4.4 8.26Q4.83 7.67 4.8500000000000005 6.64Q4.86 6.35 4.86 6.095Q4.86 5.84 4.86 5.584999999999999Q4.86 5.329999999999999 4.8500000000000005 5.06Q4.83 4.05 4.4 3.4499999999999997Q3.97 2.8499999999999996 3.08 2.8499999999999996Q2.2 2.8499999999999996 1.7650000000000001 3.4499999999999997Q1.33 4.05 1.31 5.06Q1.31 5.329999999999999 1.3050000000000002 5.584999999999999Q1.3 5.84 1.3050000000000002 6.095Q1.31 6.35 1.31 6.64Q1.33 7.67 1.7650000000000001 8.26Q2.2 8.85 3.08 8.85Z"/>
  <path fill="#E30613" transform="translate(10.000,19.500) scale(0.4545)" d="M0,9 C-3,6 -10,1 -10,-4 C-10,-9 -6,-12 -2,-12 C-1,-12 0,-11 0,-10 C0,-11 1,-12 2,-12 C6,-12 10,-9 10,-4 C10,1 3,6 0,9 Z"/>
  </g>
</svg>
