<svg xmlns="http://www.w3.org/2000/svg" viewBox="0 0 72 108">
  <rect fill="white" stroke="#555" stroke-width="0.5" x="1" y="1" width="70" height="106" rx="3" ry="3"/>
  <path fill="#E30613" transform="translate(5.000,2.500)" d="M2.88 9.45Q2.39 9.45 1.96 9.329999999999998Q1.53 9.209999999999999 1.195 8.959999999999999Q0.86 8.709999999999999 0.665 8.325Q0.47000000000000003 7.9399999999999995 0.45 7.41Q0.45 7.319999999999999 0.505 7.254999999999999Q0.56 7.1899999999999995 0.66 7.1899999999999995H0.86Q0.96 7.1899999999999995 1.0150000000000001 7.25Q1.07 7.31 1.08 7.3999999999999995Q1.12 7.92 1.375 8.239999999999998Q1.6300000000000001 8.559999999999999 2.025 8.704999999999998Q2.42 8.85 2.88 8.85Q3.7600000000000002 8.85 4.215 8.274999999999999Q4.67 7.699999999999999 4.67 6.789999999999999V2.9499999999999993H0.98Q0.88 2.9499999999999993 0.8200000000000001 2.8899999999999992Q0.76 2.829999999999999 0.76 2.7299999999999995V2.5699999999999994Q0.76 2.4699999999999998 0.8200000000000001 2.4099999999999997Q0.88 2.3499999999999996 0.98 2.3499999999999996H5.07Q5.18 2.3499999999999996 5.24 2.4099999999999997Q5.3 2.4699999999999998 5.3 2.579999999999999V6.799999999999999Q5.3 7.58 5.02 8.18Q4.74 8.78 4.205 9.114999999999998Q3.67 9.45 2.88 9.45Z"/>
  <path fill="#E30613" transform="translate(10.000,19.500) scale(0.4545)" d="M0,9 C-3,6 -10,1 -10,-4 C-10,-9 -6,-12 -2,-12 C-1,-12 0,-11 0,-10 C0,-11 1,-12 2,-12 C6,-12 10,-9 10,-4 C10,1 3,6 0,9 Z"/>
  <path fill="#E30613" transform="translate(36.000,54.000) scale(1.6364)" d="M0,9 C-3,6 -10,1 -10,-4 C-10,-9 -6,-12 -2,-12 C-1,-12 0,-11 0,-10 C0,-11 1,-12 2,-12 C6,-12 10,-9 10,-4 C10,1 3,6 0,9 Z"/>
  <g transform="translate(72,108) rotate(180)">
  <path fill="#E30613" transform="translate(5.000,2.500)" d="M2.88 9.45Q2.39 9.45 1.96 9.329999999999998Q1.53 9.209999999999999 1.195 8.959999999999999Q0.86 8.709999999999999 0.665 8.325Q0.47000000000000003 7.9399999999999995 0.45 7.41Q0.45 7.319999999999999 0.505 7.254999999999999Q0.56 7.1899999999999995 0.66 7.1899999999999995H0.86Q0.96 7.1899999999999995 1.0150000000000001 7.25Q1.07 7.31 1.08 7.3999999999999995Q1.12 7.92 1.375 8.239999999999998Q1.6300000000000001 8.559999999999999 2.025 8.704999999999998Q2.42 8.85 2.88 8.85Q3.7600000000000002 8.85 4.215 8.274999999999999Q4.67 7.699999999999999 4.67 6.789999999999999V2.9499999999999993H0.98Q0.88 2.9499999999999993 0.8200000000000001 2.8899999999999992Q0.76 2.829999999999999 0.76 2.7299999999999995V2.5699999999999994Q0.76 2.4699999999999998 0.8200000000000001 2.4099999999999997Q0.88 2.3499999999999996 0.98 2.3499999999999996H5.07Q5.18 2.3499999999999996 5.24 2.4099999999999997Q5.3 2.4699999999999998 5.3 2.579999999999999V6.799999999999999Q5.3 7.58 5.02 8.18Q4.74 8.78 4.205 9.114999999999998Q3.67 9.45 2.88 9.45Z"/>
  <path fill="#E30613" transform="translate(10.000,19.500) scale(0.4545)" d="M0,9 C-3,6 -10,1 -10,-4 C-10,-9 -6,-12 -2,-12 C-1,-12 0,-11 0,-10 C0,-11 1,-12 2,-12 C6,-12 10,-9 10,-4 C10,1 3,6 0,9 Z"/>
  </g>
</svg>
