<svg xmlns="http://www.w3.org/2000/svg" viewBox="0 0 72 108">
  <rect fill="white" stroke="#cccccc" stroke-width="0.5" x="0.5" y="0.5" width="71" height="107" rx="4"/>
  <text x="4.5" y="13" font-family="Arial,Helvetica,sans-serif" font-size="11" font-weight="bold" fill="#CC1111">K</text>
  <path fill="#CC1111" d="M 0,7.5 C -1.5,6 -7.5,2.5 -7.5,-1.5 C -7.5,-5.5 -4,-8.5 0,-5.5 C 4,-8.5 7.5,-5.5 7.5,-1.5 C 7.5,2.5 1.5,6 0,7.5 Z" transform="translate(6.5,22.5) scale(0.43)"/>

  <g transform="translate(72,108) rotate(180)">
  <text x="4.5" y="13" font-family="Arial,Helvetica,sans-serif" font-size="11" font-weight="bold" fill="#CC1111">K</text>
  <path fill="#CC1111" d="M 0,7.5 C -1.5,6 -7.5,2.5 -7.5,-1.5 C -7.5,-5.5 -4,-8.5 0,-5.5 C 4,-8.5 7.5,-5.5 7.5,-1.5 C 7.5,2.5 1.5,6 0,7.5 Z" transform="translate(6.5,22.5) scale(0.43)"/>

  </g>
  <rect fill="none" stroke="#CC1111" stroke-width="0.6" x="4.5" y="4.5" width="63" height="99" rx="3" opacity="0.35"/>
  <text x="36" y="57" font-family="Arial,Helvetica,sans-serif" font-size="34" font-weight="bold" fill="#CC1111" text-anchor="middle" dominant-baseline="middle">K</text>
  <path fill="#CC1111" d="M 0,7.5 C -1.5,6 -7.5,2.5 -7.5,-1.5 C -7.5,-5.5 -4,-8.5 0,-5.5 C 4,-8.5 7.5,-5.5 7.5,-1.5 C 7.5,2.5 1.5,6 0,7.5 Z" transform="translate(36,82) scale(0.72)"/>

</svg>