<svg xmlns="http://www.w3.org/2000/svg" viewBox="0 0 72 108">
  <rect fill="white" stroke="#555" stroke-width="0.5" x="1" y="1" width="70" height="106" rx="3" ry="3"/>
  <path fill="#000000" transform="translate(5.000,2.500)" d="M0.74 9.35Q0.64 9.35 0.5800000000000001 9.29Q0.52 9.23 0.52 9.129999999999999V8.98Q0.52 8.879999999999999 0.575 8.785Q0.63 8.69 0.77 8.559999999999999L3.36 5.97Q3.74 5.619999999999999 3.94 5.359999999999999Q4.14 5.1 4.215 4.845Q4.29 4.59 4.29 4.279999999999999Q4.29 3.6099999999999994 3.9050000000000002 3.2299999999999995Q3.52 2.8499999999999996 2.81 2.8499999999999996Q2.36 2.8499999999999996 2.03 3.0299999999999994Q1.7 3.209999999999999 1.51 3.5349999999999993Q1.32 3.8599999999999994 1.26 4.289999999999999Q1.25 4.409999999999999 1.17 4.465Q1.09 4.52 1.03 4.52H0.8300000000000001Q0.73 4.52 0.675 4.465Q0.62 4.409999999999999 0.62 4.329999999999999Q0.63 3.9899999999999993 0.76 3.6249999999999996Q0.89 3.26 1.155 2.9499999999999997Q1.42 2.6399999999999997 1.83 2.4449999999999994Q2.24 2.249999999999999 2.81 2.249999999999999Q3.5700000000000003 2.249999999999999 4.035 2.539999999999999Q4.5 2.829999999999999 4.71 3.289999999999999Q4.92 3.749999999999999 4.92 4.279999999999999Q4.92 4.6899999999999995 4.8 5.034999999999999Q4.68 5.379999999999999 4.4399999999999995 5.704999999999999Q4.2 6.029999999999999 3.83 6.369999999999999L1.49 8.75H4.84Q4.95 8.75 5.01 8.809999999999999Q5.07 8.87 5.07 8.98V9.129999999999999Q5.07 9.23 5.01 9.29Q4.95 9.35 4.84 9.35Z"/>
  <path fill="#000000" transform="translate(10.000,19.500) scale(0.4545)" d="M0,-12 C3,-15 10,-10 10,-5 C10,-1 7,3 2,5 C3,5 4,6 5,8 L-5,8 C-4,6 -3,5 -2,5 C-7,3 -10,-1 -10,-5 C-10,-10 -3,-15 0,-12 Z"/>
  <path fill="#000000" transform="translate(36.000,54.000) scale(1.6364)" d="M0,-12 C3,-15 10,-10 10,-5 C10,-1 7,3 2,5 C3,5 4,6 5,8 L-5,8 C-4,6 -3,5 -2,5 C-7,3 -10,-1 -10,-5 C-10,-10 -3,-15 0,-12 Z"/>
  <g transform="translate(72,108) rotate(180)">
  <path fill="#000000" transform="translate(5.000,2.500)" d="M0.74 9.35Q0.64 9.35 0.5800000000000001 9.29Q0.52 9.23 0.52 9.129999999999999V8.98Q0.52 8.879999999999999 0.575 8.785Q0.63 8.69 0.77 8.559999999999999L3.36 5.97Q3.74 5.619999999999999 3.94 5.359999999999999Q4.14 5.1 4.215 4.845Q4.29 4.59 4.29 4.279999999999999Q4.29 3.6099999999999994 3.9050000000000002 3.2299999999999995Q3.52 2.8499999999999996 2.81 2.8499999999999996Q2.36 2.8499999999999996 2.03 3.0299999999999994Q1.7 3.209999999999999 1.51 3.5349999999999993Q1.32 3.8599999999999994 1.26 4.289999999999999Q1.25 4.409999999999999 1.17 4.465Q1.09 4.52 1.03 4.52H0.8300000000000001Q0.73 4.52 0.675 4.465Q0.62 4.409999999999999 0.62 4.329999999999999Q0.63 3.9899999999999993 0.76 3.6249999999999996Q0.89 3.26 1.155 2.9499999999999997Q1.42 2.6399999999999997 1.83 2.4449999999999994Q2.24 2.249999999999999 2.81 2.249999999999999Q3.5700000000000003 2.249999999999999 4.035 2.539999999999999Q4.5 2.829999999999999 4.71 3.289999999999999Q4.92 3.749999999999999 4.92 4.279999999999999Q4.92 4.6899999999999995 4.8 5.034999999999999Q4.68 5.379999999999999 4.4399999999999995 5.704999999999999Q4.2 6.029999999999999 3.83 6.369999999999999L1.49 8.75H4.84Q4.95 8.75 5.01 8.809999999999999Q5.07 8.87 5.07 8.98V9.129999999999999Q5.07 9.23 5.01 9.29Q4.95 9.35 4.84 9.35Z"/>
  <path fill="#000000" transform="translate(10.000,19.500) scale(0.4545)" d="M0,-12 C3,-15 10,-10 10,-5 C10,-1 7,3 2,5 C3,5 4,6 5,8 L-5,8 C-4,6 -3,5 -2,5 C-7,3 -10,-1 -10,-5 C-10,-10 -3,-15 0,-12 Z"/>
  </g>
</svg>
