<svg xmlns="http://www.w3.org/2000/svg" viewBox="0 0 72 108">
  <rect fill="white" stroke="#555" stroke-width="0.5" x="1" y="1" width="70" height="106" rx="3" ry="3"/>
  <path fill="#000000" transform="translate(5.000,2.500)" d="M2.86 9.45Q2.3000000000000003 9.45 1.86 9.305Q1.42 9.16 1.115 8.92Q0.81 8.68 0.645 8.375Q0.48 8.07 0.47000000000000003 7.739999999999999Q0.47000000000000003 7.6499999999999995 0.53 7.6Q0.59 7.55 0.68 7.55H0.8200000000000001Q0.9 7.55 0.9750000000000001 7.59Q1.05 7.63 1.09 7.779999999999999Q1.2 8.209999999999999 1.4849999999999999 8.445Q1.77 8.68 2.135 8.765Q2.5 8.85 2.86 8.85Q3.63 8.85 4.125 8.48Q4.62 8.11 4.62 7.369999999999999Q4.62 6.629999999999999 4.175 6.31Q3.73 5.99 2.96 5.99H2.08Q1.98 5.99 1.92 5.93Q1.86 5.869999999999999 1.86 5.77V5.619999999999999Q1.86 5.539999999999999 1.8850000000000002 5.484999999999999Q1.9100000000000001 5.43 1.95 5.379999999999999L4.01 2.9499999999999993H0.99Q0.89 2.9499999999999993 0.8300000000000001 2.8899999999999992Q0.77 2.829999999999999 0.77 2.7299999999999995V2.579999999999999Q0.77 2.4699999999999998 0.8300000000000001 2.4099999999999997Q0.89 2.3499999999999996 0.99 2.3499999999999996H4.72Q4.83 2.3499999999999996 4.890000000000001 2.4099999999999997Q4.95 2.4699999999999998 4.95 2.579999999999999V2.7299999999999995Q4.95 2.789999999999999 4.925000000000001 2.8349999999999995Q4.9 2.88 4.87 2.92L2.7600000000000002 5.39H2.96Q3.65 5.39 4.165 5.6049999999999995Q4.68 5.819999999999999 4.965 6.26Q5.25 6.699999999999999 5.25 7.369999999999999Q5.25 8.03 4.9399999999999995 8.495Q4.63 8.959999999999999 4.09 9.204999999999998Q3.5500000000000003 9.45 2.86 9.45Z"/>
  <path fill="#000000" transform="translate(10.000,19.500) scale(0.4545)" d="M0,-12 C3,-15 10,-10 10,-5 C10,-1 7,3 2,5 C3,5 4,6 5,8 L-5,8 C-4,6 -3,5 -2,5 C-7,3 -10,-1 -10,-5 C-10,-10 -3,-15 0,-12 Z"/>
  <path fill="#000000" transform="translate(36.000,54.000) scale(1.6364)" d="M0,-12 C3,-15 10,-10 10,-5 C10,-1 7,3 2,5 C3,5 4,6 5,8 L-5,8 C-4,6 -3,5 -2,5 C-7,3 -10,-1 -10,-5 C-10,-10 -3,-15 0,-12 Z"/>
  <g transform="translate(72,108) rotate(180)">
  <path fill="#000000" transform="translate(5.000,2.500)" d="M2.86 9.45Q2.3000000000000003 9.45 1.86 9.305Q1.42 9.16 1.115 8.92Q0.81 8.68 0.645 8.375Q0.48 8.07 0.47000000000000003 7.739999999999999Q0.47000000000000003 7.6499999999999995 0.53 7.6Q0.59 7.55 0.68 7.55H0.8200000000000001Q0.9 7.55 0.9750000000000001 7.59Q1.05 7.63 1.09 7.779999999999999Q1.2 8.209999999999999 1.4849999999999999 8.445Q1.77 8.68 2.135 8.765Q2.5 8.85 2.86 8.85Q3.63 8.85 4.125 8.48Q4.62 8.11 4.62 7.369999999999999Q4.62 6.629999999999999 4.175 6.31Q3.73 5.99 2.96 5.99H2.08Q1.98 5.99 1.92 5.93Q1.86 5.869999999999999 1.86 5.77V5.619999999999999Q1.86 5.539999999999999 1.8850000000000002 5.484999999999999Q1.9100000000000001 5.43 1.95 5.379999999999999L4.01 2.9499999999999993H0.99Q0.89 2.9499999999999993 0.8300000000000001 2.8899999999999992Q0.77 2.829999999999999 0.77 2.7299999999999995V2.579999999999999Q0.77 2.4699999999999998 0.8300000000000001 2.4099999999999997Q0.89 2.3499999999999996 0.99 2.3499999999999996H4.72Q4.83 2.3499999999999996 4.890000000000001 2.4099999999999997Q4.95 2.4699999999999998 4.95 2.579999999999999V2.7299999999999995Q4.95 2.789999999999999 4.925000000000001 2.8349999999999995Q4.9 2.88 4.87 2.92L2.7600000000000002 5.39H2.96Q3.65 5.39 4.165 5.6049999999999995Q4.68 5.819999999999999 4.965 6.26Q5.25 6.699999999999999 5.25 7.369999999999999Q5.25 8.03 4.9399999999999995 8.495Q4.63 8.959999999999999 4.09 9.204999999999998Q3.5500000000000003 9.45 2.86 9.45Z"/>
  <path fill="#000000" transform="translate(10.000,19.500) scale(0.4545)" d="M0,-12 C3,-15 10,-10 10,-5 C10,-1 7,3 2,5 C3,5 4,6 5,8 L-5,8 C-4,6 -3,5 -2,5 C-7,3 -10,-1 -10,-5 C-10,-10 -3,-15 0,-12 Z"/>
  </g>
</svg>
