<svg xmlns="http://www.w3.org/2000/svg" viewBox="0 0 72 108">
  <rect fill="white" stroke="#cccccc" stroke-width="0.5" x="0.5" y="0.5" width="71" height="107" rx="4"/>
  <text x="4.5" y="13" font-family="Arial,Helvetica,sans-serif" font-size="11" font-weight="bold" fill="#1A1A1A">7</text>
  <path fill="#1A1A1A" d="M 0,-9 C 0,-4 -7.5,-2 -7.5,2.5 C -7.5,6.5 -3.5,7.5 -1,5.5 C -2,7.5 -3.5,10 -6,10.5 L 6,10.5 C 3.5,10 2,7.5 1,5.5 C 3.5,7.5 7.5,6.5 7.5,2.5 C 7.5,-2 0,-4 0,-9 Z" transform="translate(6.5,22.5) scale(0.43)"/>

  <g transform="translate(72,108) rotate(180)">
  <text x="4.5" y="13" font-family="Arial,Helvetica,sans-serif" font-size="11" font-weight="bold" fill="#1A1A1A">7</text>
  <path fill="#1A1A1A" d="M 0,-9 C 0,-4 -7.5,-2 -7.5,2.5 C -7.5,6.5 -3.5,7.5 -1,5.5 C -2,7.5 -3.5,10 -6,10.5 L 6,10.5 C 3.5,10 2,7.5 1,5.5 C 3.5,7.5 7.5,6.5 7.5,2.5 C 7.5,-2 0,-4 0,-9 Z" transform="translate(6.5,22.5) scale(0.43)"/>

  </g>
  <path fill="#1A1A1A" d="M 0,-9 C 0,-4 -7.5,-2 -7.5,2.5 C -7.5,6.5 -3.5,7.5 -1,5.5 C -2,7.5 -3.5,10 -6,10.5 L 6,10.5 C 3.5,10 2,7.5 1,5.5 C 3.5,7.5 7.5,6.5 7.5,2.5 C 7.5,-2 0,-4 0,-9 Z" transform="translate(23,34) scale(0.43)"/>

  <path fill="#1A1A1A" d="M 0,-9 C 0,-4 -7.5,-2 -7.5,2.5 C -7.5,6.5 -3.5,7.5 -1,5.5 C -2,7.5 -3.5,10 -6,10.5 L 6,10.5 C 3.5,10 2,7.5 1,5.5 C 3.5,7.5 7.5,6.5 7.5,2.5 C 7.5,-2 0,-4 0,-9 Z" transform="translate(49,34) scale(0.43)"/>

  <path fill="#1A1A1A" d="M 0,-9 C 0,-4 -7.5,-2 -7.5,2.5 C -7.5,6.5 -3.5,7.5 -1,5.5 C -2,7.5 -3.5,10 -6,10.5 L 6,10.5 C 3.5,10 2,7.5 1,5.5 C 3.5,7.5 7.5,6.5 7.5,2.5 C 7.5,-2 0,-4 0,-9 Z" transform="translate(36,43) scale(0.43)"/>

  <path fill="#1A1A1A" d="M 0,-9 C 0,-4 -7.5,-2 -7.5,2.5 C -7.5,6.5 -3.5,7.5 -1,5.5 C -2,7.5 -3.5,10 -6,10.5 L 6,10.5 C 3.5,10 2,7.5 1,5.5 C 3.5,7.5 7.5,6.5 7.5,2.5 C 7.5,-2 0,-4 0,-9 Z" transform="translate(23,54) scale(0.43)"/>

  <path fill="#1A1A1A" d="M 0,-9 C 0,-4 -7.5,-2 -7.5,2.5 C -7.5,6.5 -3.5,7.5 -1,5.5 C -2,7.5 -3.5,10 -6,10.5 L 6,10.5 C 3.5,10 2,7.5 1,5.5 C 3.5,7.5 7.5,6.5 7.5,2.5 C 7.5,-2 0,-4 0,-9 Z" transform="translate(49,54) scale(0.43)"/>

  <path fill="#1A1A1A" d="M 0,-9 C 0,-4 -7.5,-2 -7.5,2.5 C -7.5,6.5 -3.5,7.5 -1,5.5 C -2,7.5 -3.5,10 -6,10.5 L 6,10.5 C 3.5,10 2,7.5 1,5.5 C 3.5,7.5 7.5,6.5 7.5,2.5 C 7.5,-2 0,-4 0,-9 Z" transform="translate(23,74) scale(0.43) rotate(180)"/>

  <path fill="#1A1A1A" d="M 0,-9 C 0,-4 -7.5,-2 -7.5,2.5 C -7.5,6.5 -3.5,7.5 -1,5.5 C -2,7.5 -3.5,10 -6,10.5 L 6,10.5 C 3.5,10 2,7.5 1,5.5 C 3.5,7.5 7.5,6.5 7.5,2.5 C 7.5,-2 0,-4 0,-9 Z" transform="translate(49,74) scale(0.43) rotate(180)"/>

</svg>