<svg xmlns="http://www.w3.org/2000/svg" viewBox="0 0 72 108">
  <rect fill="white" stroke="#555" stroke-width="0.5" x="1" y="1" width="70" height="106" rx="3" ry="3"/>
  <path fill="#000000" transform="translate(5.000,2.500)" d="M5.47 10.0Q5.36 10.0 5.28 9.915Q5.2 9.83 5.15 9.77L4.71 9.16Q4.11 9.45 3.31 9.45Q2.48 9.45 1.9 9.155Q1.32 8.86 1.01 8.245Q0.7000000000000001 7.63 0.67 6.6899999999999995Q0.66 6.24 0.66 5.85Q0.66 5.459999999999999 0.67 5.01Q0.7000000000000001 4.079999999999999 1.03 3.4649999999999994Q1.36 2.8499999999999996 1.9450000000000003 2.5499999999999994Q2.5300000000000002 2.249999999999999 3.31 2.249999999999999Q4.09 2.249999999999999 4.675 2.5499999999999994Q5.26 2.8499999999999996 5.595 3.4649999999999994Q5.93 4.079999999999999 5.95 5.01Q5.97 5.459999999999999 5.97 5.85Q5.97 6.24 5.95 6.6899999999999995Q5.9 8.12 5.22 8.79L5.86 9.69Q5.87 9.7 5.88 9.725Q5.89 9.75 5.89 9.799999999999999Q5.89 9.879999999999999 5.83 9.94Q5.7700000000000005 10.0 5.69 10.0ZM3.31 8.85Q4.17 8.85 4.725 8.33Q5.28 7.81 5.32 6.64Q5.34 6.1899999999999995 5.34 5.85Q5.34 5.51 5.32 5.06Q5.3 4.279999999999999 5.035 3.7899999999999996Q4.7700000000000005 3.3 4.325 3.0749999999999997Q3.88 2.8499999999999996 3.31 2.8499999999999996Q2.75 2.8499999999999996 2.305 3.0749999999999997Q1.86 3.3 1.5950000000000002 3.7899999999999996Q1.33 4.279999999999999 1.3 5.06Q1.29 5.51 1.29 5.85Q1.29 6.1899999999999995 1.3 6.64Q1.34 7.81 1.9 8.33Q2.46 8.85 3.31 8.85Z"/>
  <path fill="#000000" transform="translate(10.000,19.500) scale(0.4545)" d="M0,-12 C3,-15 10,-10 10,-5 C10,-1 7,3 2,5 C3,5 4,6 5,8 L-5,8 C-4,6 -3,5 -2,5 C-7,3 -10,-1 -10,-5 C-10,-10 -3,-15 0,-12 Z"/>
  <path fill="#000000" transform="translate(36.000,54.000) scale(1.6364)" d="M0,-12 C3,-15 10,-10 10,-5 C10,-1 7,3 2,5 C3,5 4,6 5,8 L-5,8 C-4,6 -3,5 -2,5 C-7,3 -10,-1 -10,-5 C-10,-10 -3,-15 0,-12 Z"/>
  <g transform="translate(72,108) rotate(180)">
  <path fill="#000000" transform="translate(5.000,2.500)" d="M5.47 10.0Q5.36 10.0 5.28 9.915Q5.2 9.83 5.15 9.77L4.71 9.16Q4.11 9.45 3.31 9.45Q2.48 9.45 1.9 9.155Q1.32 8.86 1.01 8.245Q0.7000000000000001 7.63 0.67 6.6899999999999995Q0.66 6.24 0.66 5.85Q0.66 5.459999999999999 0.67 5.01Q0.7000000000000001 4.079999999999999 1.03 3.4649999999999994Q1.36 2.8499999999999996 1.9450000000000003 2.5499999999999994Q2.5300000000000002 2.249999999999999 3.31 2.249999999999999Q4.09 2.249999999999999 4.675 2.5499999999999994Q5.26 2.8499999999999996 5.595 3.4649999999999994Q5.93 4.079999999999999 5.95 5.01Q5.97 5.459999999999999 5.97 5.85Q5.97 6.24 5.95 6.6899999999999995Q5.9 8.12 5.22 8.79L5.86 9.69Q5.87 9.7 5.88 9.725Q5.89 9.75 5.89 9.799999999999999Q5.89 9.879999999999999 5.83 9.94Q5.7700000000000005 10.0 5.69 10.0ZM3.31 8.85Q4.17 8.85 4.725 8.33Q5.28 7.81 5.32 6.64Q5.34 6.1899999999999995 5.34 5.85Q5.34 5.51 5.32 5.06Q5.3 4.279999999999999 5.035 3.7899999999999996Q4.7700000000000005 3.3 4.325 3.0749999999999997Q3.88 2.8499999999999996 3.31 2.8499999999999996Q2.75 2.8499999999999996 2.305 3.0749999999999997Q1.86 3.3 1.5950000000000002 3.7899999999999996Q1.33 4.279999999999999 1.3 5.06Q1.29 5.51 1.29 5.85Q1.29 6.1899999999999995 1.3 6.64Q1.34 7.81 1.9 8.33Q2.46 8.85 3.31 8.85Z"/>
  <path fill="#000000" transform="translate(10.000,19.500) scale(0.4545)" d="M0,-12 C3,-15 10,-10 10,-5 C10,-1 7,3 2,5 C3,5 4,6 5,8 L-5,8 C-4,6 -3,5 -2,5 C-7,3 -10,-1 -10,-5 C-10,-10 -3,-15 0,-12 Z"/>
  </g>
</svg>
