<svg xmlns="http://www.w3.org/2000/svg" viewBox="0 0 72 108">
  <rect fill="white" stroke="#cccccc" stroke-width="0.5" x="0.5" y="0.5" width="71" height="107" rx="4"/>
  <text x="4.5" y="13" font-family="Arial,Helvetica,sans-serif" font-size="11" font-weight="bold" fill="#1A1A1A">Q</text>
  <path fill="#1A1A1A" d="M 0,-9 C 0,-4 -7.5,-2 -7.5,2.5 C -7.5,6.5 -3.5,7.5 -1,5.5 C -2,7.5 -3.5,10 -6,10.5 L 6,10.5 C 3.5,10 2,7.5 1,5.5 C 3.5,7.5 7.5,6.5 7.5,2.5 C 7.5,-2 0,-4 0,-9 Z" transform="translate(6.5,22.5) scale(0.43)"/>

  <g transform="translate(72,108) rotate(180)">
  <text x="4.5" y="13" font-family="Arial,Helvetica,sans-serif" font-size="11" font-weight="bold" fill="#1A1A1A">Q</text>
  <path fill="#1A1A1A" d="M 0,-9 C 0,-4 -7.5,-2 -7.5,2.5 C -7.5,6.5 -3.5,7.5 -1,5.5 C -2,7.5 -3.5,10 -6,10.5 L 6,10.5 C 3.5,10 2,7.5 1,5.5 C 3.5,7.5 7.5,6.5 7.5,2.5 C 7.5,-2 0,-4 0,-9 Z" transform="translate(6.5,22.5) scale(0.43)"/>

  </g>
  <rect fill="none" stroke="#1A1A1A" stroke-width="0.6" x="4.5" y="4.5" width="63" height="99" rx="3" opacity="0.35"/>
  <text x="36" y="57" font-family="Arial,Helvetica,sans-serif" font-size="34" font-weight="bold" fill="#1A1A1A" text-anchor="middle" dominant-baseline="middle">Q</text>
  <path fill="#1A1A1A" d="M 0,-9 C 0,-4 -7.5,-2 -7.5,2.5 C -7.5,6.5 -3.5,7.5 -1,5.5 C -2,7.5 -3.5,10 -6,10.5 L 6,10.5 C 3.5,10 2,7.5 1,5.5 C 3.5,7.5 7.5,6.5 7.5,2.5 C 7.5,-2 0,-4 0,-9 Z" transform="translate(36,82) scale(0.72)"/>

</svg>