<svg xmlns="http://www.w3.org/2000/svg" viewBox="0 0 72 108">
  <rect fill="white" stroke="#555" stroke-width="0.5" x="1" y="1" width="70" height="106" rx="3" ry="3"/>
  <path fill="#000000" transform="translate(5.000,2.500)" d="M2.8000000000000003 9.45Q2.07 9.45 1.565 9.18Q1.06 8.91 0.79 8.485Q0.52 8.059999999999999 0.5 7.6Q0.49 7.51 0.55 7.46Q0.61 7.41 0.7000000000000001 7.41H0.89Q0.97 7.41 1.0350000000000001 7.449999999999999Q1.1 7.489999999999999 1.1400000000000001 7.64Q1.25 8.07 1.505 8.34Q1.76 8.61 2.1 8.73Q2.44 8.85 2.8000000000000003 8.85Q3.29 8.85 3.695 8.649999999999999Q4.1 8.45 4.34 8.059999999999999Q4.58 7.67 4.58 7.109999999999999Q4.58 6.59 4.34 6.225Q4.1 5.859999999999999 3.695 5.664999999999999Q3.29 5.47 2.8000000000000003 5.47Q2.43 5.47 2.19 5.56Q1.95 5.6499999999999995 1.79 5.77Q1.6300000000000001 5.89 1.5 5.9799999999999995Q1.37 6.069999999999999 1.21 6.069999999999999H1.03Q0.9400000000000001 6.069999999999999 0.8700000000000001 6.004999999999999Q0.8 5.9399999999999995 0.81 5.85L1.11 2.579999999999999Q1.12 2.4699999999999998 1.175 2.4099999999999997Q1.23 2.3499999999999996 1.33 2.3499999999999996H4.59Q4.69 2.3499999999999996 4.75 2.4099999999999997Q4.8100000000000005 2.4699999999999998 4.8100000000000005 2.5699999999999994V2.7299999999999995Q4.8100000000000005 2.829999999999999 4.75 2.8899999999999992Q4.69 2.9499999999999993 4.59 2.9499999999999993H1.72L1.51 5.21Q1.62 5.14 1.9300000000000002 5.004999999999999Q2.24 4.869999999999999 2.8000000000000003 4.869999999999999Q3.3000000000000003 4.869999999999999 3.7350000000000003 5.014999999999999Q4.17 5.159999999999999 4.505 5.444999999999999Q4.84 5.7299999999999995 5.025 6.145Q5.21 6.56 5.21 7.109999999999999Q5.21 7.89 4.885 8.41Q4.5600000000000005 8.93 4.015000000000001 9.19Q3.47 9.45 2.8000000000000003 9.45Z"/>
  <path fill="#000000" transform="translate(10.000,19.500) scale(0.4545)" d="M-5.5,1 A4,4 0 1,1 -5.5,-7 A4,4 0 1,1 -5.5,1 Z M5.5,1 A4,4 0 1,1 5.5,-7 A4,4 0 1,1 5.5,1 Z M0,7 A4,4 0 1,1 0,-1 A4,4 0 1,1 0,7 Z M-2.5,7 L2.5,7 L2.5,11 L-2.5,11 Z"/>
  <path fill="#000000" transform="translate(36.000,54.000) scale(1.6364)" d="M-5.5,1 A4,4 0 1,1 -5.5,-7 A4,4 0 1,1 -5.5,1 Z M5.5,1 A4,4 0 1,1 5.5,-7 A4,4 0 1,1 5.5,1 Z M0,7 A4,4 0 1,1 0,-1 A4,4 0 1,1 0,7 Z M-2.5,7 L2.5,7 L2.5,11 L-2.5,11 Z"/>
  <g transform="translate(72,108) rotate(180)">
  <path fill="#000000" transform="translate(5.000,2.500)" d="M2.8000000000000003 9.45Q2.07 9.45 1.565 9.18Q1.06 8.91 0.79 8.485Q0.52 8.059999999999999 0.5 7.6Q0.49 7.51 0.55 7.46Q0.61 7.41 0.7000000000000001 7.41H0.89Q0.97 7.41 1.0350000000000001 7.449999999999999Q1.1 7.489999999999999 1.1400000000000001 7.64Q1.25 8.07 1.505 8.34Q1.76 8.61 2.1 8.73Q2.44 8.85 2.8000000000000003 8.85Q3.29 8.85 3.695 8.649999999999999Q4.1 8.45 4.34 8.059999999999999Q4.58 7.67 4.58 7.109999999999999Q4.58 6.59 4.34 6.225Q4.1 5.859999999999999 3.695 5.664999999999999Q3.29 5.47 2.8000000000000003 5.47Q2.43 5.47 2.19 5.56Q1.95 5.6499999999999995 1.79 5.77Q1.6300000000000001 5.89 1.5 5.9799999999999995Q1.37 6.069999999999999 1.21 6.069999999999999H1.03Q0.9400000000000001 6.069999999999999 0.8700000000000001 6.004999999999999Q0.8 5.9399999999999995 0.81 5.85L1.11 2.579999999999999Q1.12 2.4699999999999998 1.175 2.4099999999999997Q1.23 2.3499999999999996 1.33 2.3499999999999996H4.59Q4.69 2.3499999999999996 4.75 2.4099999999999997Q4.8100000000000005 2.4699999999999998 4.8100000000000005 2.5699999999999994V2.7299999999999995Q4.8100000000000005 2.829999999999999 4.75 2.8899999999999992Q4.69 2.9499999999999993 4.59 2.9499999999999993H1.72L1.51 5.21Q1.62 5.14 1.9300000000000002 5.004999999999999Q2.24 4.869999999999999 2.8000000000000003 4.869999999999999Q3.3000000000000003 4.869999999999999 3.7350000000000003 5.014999999999999Q4.17 5.159999999999999 4.505 5.444999999999999Q4.84 5.7299999999999995 5.025 6.145Q5.21 6.56 5.21 7.109999999999999Q5.21 7.89 4.885 8.41Q4.5600000000000005 8.93 4.015000000000001 9.19Q3.47 9.45 2.8000000000000003 9.45Z"/>
  <path fill="#000000" transform="translate(10.000,19.500) scale(0.4545)" d="M-5.5,1 A4,4 0 1,1 -5.5,-7 A4,4 0 1,1 -5.5,1 Z M5.5,1 A4,4 0 1,1 5.5,-7 A4,4 0 1,1 5.5,1 Z M0,7 A4,4 0 1,1 0,-1 A4,4 0 1,1 0,7 Z M-2.5,7 L2.5,7 L2.5,11 L-2.5,11 Z"/>
  </g>
</svg>
