<svg xmlns="http://www.w3.org/2000/svg" viewBox="0 0 72 108">
  <rect fill="white" stroke="#555" stroke-width="0.5" x="1" y="1" width="70" height="106" rx="3" ry="3"/>
  <path fill="#000000" transform="translate(5.000,2.500)" d="M2.98 9.45Q2.18 9.45 1.6400000000000001 9.11Q1.1 8.77 0.8250000000000001 8.23Q0.55 7.6899999999999995 0.55 7.09Q0.55 6.799999999999999 0.615 6.534999999999999Q0.68 6.27 0.78 6.039999999999999Q0.88 5.81 0.9850000000000001 5.625Q1.09 5.4399999999999995 1.18 5.319999999999999L3.15 2.55Q3.2 2.499999999999999 3.265 2.4249999999999994Q3.33 2.3499999999999996 3.46 2.3499999999999996H3.65Q3.74 2.3499999999999996 3.795 2.4149999999999996Q3.85 2.4799999999999995 3.85 2.5699999999999994Q3.85 2.6099999999999994 3.835 2.6449999999999996Q3.8200000000000003 2.6799999999999997 3.8000000000000003 2.6999999999999993L2.3000000000000003 4.819999999999999Q2.44 4.779999999999999 2.63 4.76Q2.82 4.739999999999999 2.98 4.739999999999999Q3.58 4.739999999999999 4.035 4.935Q4.49 5.13 4.795 5.459999999999999Q5.1000000000000005 5.789999999999999 5.255000000000001 6.215Q5.41 6.64 5.41 7.09Q5.41 7.6899999999999995 5.135 8.23Q4.86 8.77 4.32 9.11Q3.7800000000000002 9.45 2.98 9.45ZM2.98 8.85Q3.45 8.85 3.8600000000000003 8.649999999999999Q4.2700000000000005 8.45 4.525 8.055Q4.78 7.66 4.78 7.09Q4.78 6.52 4.525 6.13Q4.2700000000000005 5.74 3.8600000000000003 5.54Q3.45 5.34 2.98 5.34Q2.5100000000000002 5.34 2.1 5.54Q1.69 5.74 1.435 6.13Q1.18 6.52 1.18 7.09Q1.18 7.66 1.435 8.055Q1.69 8.45 2.1 8.649999999999999Q2.5100000000000002 8.85 2.98 8.85Z"/>
  <path fill="#000000" transform="translate(10.000,19.500) scale(0.4545)" d="M-5.5,1 A4,4 0 1,1 -5.5,-7 A4,4 0 1,1 -5.5,1 Z M5.5,1 A4,4 0 1,1 5.5,-7 A4,4 0 1,1 5.5,1 Z M0,7 A4,4 0 1,1 0,-1 A4,4 0 1,1 0,7 Z M-2.5,7 L2.5,7 L2.5,11 L-2.5,11 Z"/>
  <path fill="#000000" transform="translate(36.000,54.000) scale(1.6364)" d="M-5.5,1 A4,4 0 1,1 -5.5,-7 A4,4 0 1,1 -5.5,1 Z M5.5,1 A4,4 0 1,1 5.5,-7 A4,4 0 1,1 5.5,1 Z M0,7 A4,4 0 1,1 0,-1 A4,4 0 1,1 0,7 Z M-2.5,7 L2.5,7 L2.5,11 L-2.5,11 Z"/>
  <g transform="translate(72,108) rotate(180)">
  <path fill="#000000" transform="translate(5.000,2.500)" d="M2.98 9.45Q2.18 9.45 1.6400000000000001 9.11Q1.1 8.77 0.8250000000000001 8.23Q0.55 7.6899999999999995 0.55 7.09Q0.55 6.799999999999999 0.615 6.534999999999999Q0.68 6.27 0.78 6.039999999999999Q0.88 5.81 0.9850000000000001 5.625Q1.09 5.4399999999999995 1.18 5.319999999999999L3.15 2.55Q3.2 2.499999999999999 3.265 2.4249999999999994Q3.33 2.3499999999999996 3.46 2.3499999999999996H3.65Q3.74 2.3499999999999996 3.795 2.4149999999999996Q3.85 2.4799999999999995 3.85 2.5699999999999994Q3.85 2.6099999999999994 3.835 2.6449999999999996Q3.8200000000000003 2.6799999999999997 3.8000000000000003 2.6999999999999993L2.3000000000000003 4.819999999999999Q2.44 4.779999999999999 2.63 4.76Q2.82 4.739999999999999 2.98 4.739999999999999Q3.58 4.739999999999999 4.035 4.935Q4.49 5.13 4.795 5.459999999999999Q5.1000000000000005 5.789999999999999 5.255000000000001 6.215Q5.41 6.64 5.41 7.09Q5.41 7.6899999999999995 5.135 8.23Q4.86 8.77 4.32 9.11Q3.7800000000000002 9.45 2.98 9.45ZM2.98 8.85Q3.45 8.85 3.8600000000000003 8.649999999999999Q4.2700000000000005 8.45 4.525 8.055Q4.78 7.66 4.78 7.09Q4.78 6.52 4.525 6.13Q4.2700000000000005 5.74 3.8600000000000003 5.54Q3.45 5.34 2.98 5.34Q2.5100000000000002 5.34 2.1 5.54Q1.69 5.74 1.435 6.13Q1.18 6.52 1.18 7.09Q1.18 7.66 1.435 8.055Q1.69 8.45 2.1 8.649999999999999Q2.5100000000000002 8.85 2.98 8.85Z"/>
  <path fill="#000000" transform="translate(10.000,19.500) scale(0.4545)" d="M-5.5,1 A4,4 0 1,1 -5.5,-7 A4,4 0 1,1 -5.5,1 Z M5.5,1 A4,4 0 1,1 5.5,-7 A4,4 0 1,1 5.5,1 Z M0,7 A4,4 0 1,1 0,-1 A4,4 0 1,1 0,7 Z M-2.5,7 L2.5,7 L2.5,11 L-2.5,11 Z"/>
  </g>
</svg>
