<svg xmlns="http://www.w3.org/2000/svg" viewBox="0 0 72 108">
  <rect fill="white" stroke="#555" stroke-width="0.5" x="1" y="1" width="70" height="106" rx="3" ry="3"/>
  <path fill="#000000" transform="translate(5.000,2.500)" d="M3.09 9.45Q2.58 9.45 2.125 9.315Q1.67 9.18 1.33 8.915Q0.99 8.65 0.7949999999999999 8.265Q0.6 7.88 0.6 7.38Q0.6 6.74 0.9099999999999999 6.295Q1.22 5.85 1.73 5.609999999999999Q1.33 5.379999999999999 1.09 4.999999999999999Q0.85 4.619999999999999 0.85 4.09Q0.85 3.4799999999999995 1.15 3.0749999999999997Q1.45 2.67 1.96 2.4599999999999995Q2.47 2.249999999999999 3.09 2.249999999999999Q3.71 2.249999999999999 4.220000000000001 2.4599999999999995Q4.73 2.67 5.03 3.0749999999999997Q5.33 3.4799999999999995 5.33 4.09Q5.33 4.619999999999999 5.09 4.999999999999999Q4.8500000000000005 5.379999999999999 4.45 5.609999999999999Q4.96 5.85 5.27 6.295Q5.58 6.74 5.58 7.38Q5.58 8.049999999999999 5.245 8.509999999999998Q4.91 8.969999999999999 4.345000000000001 9.209999999999999Q3.7800000000000002 9.45 3.09 9.45ZM3.09 8.85Q3.61 8.85 4.03 8.67Q4.45 8.49 4.7 8.16Q4.95 7.83 4.95 7.38Q4.95 6.92 4.7 6.595Q4.45 6.27 4.03 6.095Q3.61 5.92 3.09 5.92Q2.58 5.92 2.1550000000000002 6.095Q1.73 6.27 1.48 6.595Q1.23 6.92 1.23 7.38Q1.23 7.83 1.48 8.16Q1.73 8.49 2.1550000000000002 8.67Q2.58 8.85 3.09 8.85ZM3.09 5.319999999999999Q3.52 5.31 3.885 5.16Q4.25 5.01 4.475 4.74Q4.7 4.47 4.7 4.09Q4.7 3.6999999999999993 4.485 3.4249999999999994Q4.2700000000000005 3.1499999999999995 3.9050000000000002 2.9999999999999996Q3.54 2.8499999999999996 3.09 2.8499999999999996Q2.65 2.8499999999999996 2.2800000000000002 2.9999999999999996Q1.9100000000000001 3.1499999999999995 1.695 3.4249999999999994Q1.48 3.6999999999999993 1.48 4.09Q1.48 4.4799999999999995 1.695 4.754999999999999Q1.9100000000000001 5.029999999999999 2.2800000000000002 5.174999999999999Q2.65 5.319999999999999 3.09 5.319999999999999Z"/>
  <path fill="#000000" transform="translate(10.000,19.500) scale(0.4545)" d="M-5.5,1 A4,4 0 1,1 -5.5,-7 A4,4 0 1,1 -5.5,1 Z M5.5,1 A4,4 0 1,1 5.5,-7 A4,4 0 1,1 5.5,1 Z M0,7 A4,4 0 1,1 0,-1 A4,4 0 1,1 0,7 Z M-2.5,7 L2.5,7 L2.5,11 L-2.5,11 Z"/>
  <path fill="#000000" transform="translate(36.000,54.000) scale(1.6364)" d="M-5.5,1 A4,4 0 1,1 -5.5,-7 A4,4 0 1,1 -5.5,1 Z M5.5,1 A4,4 0 1,1 5.5,-7 A4,4 0 1,1 5.5,1 Z M0,7 A4,4 0 1,1 0,-1 A4,4 0 1,1 0,7 Z M-2.5,7 L2.5,7 L2.5,11 L-2.5,11 Z"/>
  <g transform="translate(72,108) rotate(180)">
  <path fill="#000000" transform="translate(5.000,2.500)" d="M3.09 9.45Q2.58 9.45 2.125 9.315Q1.67 9.18 1.33 8.915Q0.99 8.65 0.7949999999999999 8.265Q0.6 7.88 0.6 7.38Q0.6 6.74 0.9099999999999999 6.295Q1.22 5.85 1.73 5.609999999999999Q1.33 5.379999999999999 1.09 4.999999999999999Q0.85 4.619999999999999 0.85 4.09Q0.85 3.4799999999999995 1.15 3.0749999999999997Q1.45 2.67 1.96 2.4599999999999995Q2.47 2.249999999999999 3.09 2.249999999999999Q3.71 2.249999999999999 4.220000000000001 2.4599999999999995Q4.73 2.67 5.03 3.0749999999999997Q5.33 3.4799999999999995 5.33 4.09Q5.33 4.619999999999999 5.09 4.999999999999999Q4.8500000000000005 5.379999999999999 4.45 5.609999999999999Q4.96 5.85 5.27 6.295Q5.58 6.74 5.58 7.38Q5.58 8.049999999999999 5.245 8.509999999999998Q4.91 8.969999999999999 4.345000000000001 9.209999999999999Q3.7800000000000002 9.45 3.09 9.45ZM3.09 8.85Q3.61 8.85 4.03 8.67Q4.45 8.49 4.7 8.16Q4.95 7.83 4.95 7.38Q4.95 6.92 4.7 6.595Q4.45 6.27 4.03 6.095Q3.61 5.92 3.09 5.92Q2.58 5.92 2.1550000000000002 6.095Q1.73 6.27 1.48 6.595Q1.23 6.92 1.23 7.38Q1.23 7.83 1.48 8.16Q1.73 8.49 2.1550000000000002 8.67Q2.58 8.85 3.09 8.85ZM3.09 5.319999999999999Q3.52 5.31 3.885 5.16Q4.25 5.01 4.475 4.74Q4.7 4.47 4.7 4.09Q4.7 3.6999999999999993 4.485 3.4249999999999994Q4.2700000000000005 3.1499999999999995 3.9050000000000002 2.9999999999999996Q3.54 2.8499999999999996 3.09 2.8499999999999996Q2.65 2.8499999999999996 2.2800000000000002 2.9999999999999996Q1.9100000000000001 3.1499999999999995 1.695 3.4249999999999994Q1.48 3.6999999999999993 1.48 4.09Q1.48 4.4799999999999995 1.695 4.754999999999999Q1.9100000000000001 5.029999999999999 2.2800000000000002 5.174999999999999Q2.65 5.319999999999999 3.09 5.319999999999999Z"/>
  <path fill="#000000" transform="translate(10.000,19.500) scale(0.4545)" d="M-5.5,1 A4,4 0 1,1 -5.5,-7 A4,4 0 1,1 -5.5,1 Z M5.5,1 A4,4 0 1,1 5.5,-7 A4,4 0 1,1 5.5,1 Z M0,7 A4,4 0 1,1 0,-1 A4,4 0 1,1 0,7 Z M-2.5,7 L2.5,7 L2.5,11 L-2.5,11 Z"/>
  </g>
</svg>
