<svg xmlns="http://www.w3.org/2000/svg" viewBox="0 0 72 108">
  <rect fill="white" stroke="#555" stroke-width="0.5" x="1" y="1" width="70" height="106" rx="3" ry="3"/>
  <path fill="#E30613" transform="translate(5.000,2.500)" d="M1.53 9.35Q1.44 9.35 1.385 9.285Q1.33 9.219999999999999 1.33 9.129999999999999Q1.33 9.1 1.35 9.04L3.92 2.9499999999999993H0.51Q0.41000000000000003 2.9499999999999993 0.35 2.8899999999999992Q0.29 2.829999999999999 0.29 2.7299999999999995V2.579999999999999Q0.29 2.4699999999999998 0.35 2.4099999999999997Q0.41000000000000003 2.3499999999999996 0.51 2.3499999999999996H4.37Q4.48 2.3499999999999996 4.540000000000001 2.4099999999999997Q4.6000000000000005 2.4699999999999998 4.6000000000000005 2.579999999999999V2.7299999999999995Q4.6000000000000005 2.8499999999999996 4.585000000000001 2.9249999999999994Q4.57 2.999999999999999 4.53 3.0999999999999996L2.0 9.1Q1.96 9.18 1.905 9.265Q1.85 9.35 1.74 9.35Z"/>
  <path fill="#E30613" transform="translate(10.000,19.500) scale(0.4545)" d="M0,-10 L9,0 L0,10 L-9,0 Z"/>
  <path fill="#E30613" transform="translate(36.000,54.000) scale(1.6364)" d="M0,-10 L9,0 L0,10 L-9,0 Z"/>
  <g transform="translate(72,108) rotate(180)">
  <path fill="#E30613" transform="translate(5.000,2.500)" d="M1.53 9.35Q1.44 9.35 1.385 9.285Q1.33 9.219999999999999 1.33 9.129999999999999Q1.33 9.1 1.35 9.04L3.92 2.9499999999999993H0.51Q0.41000000000000003 2.9499999999999993 0.35 2.8899999999999992Q0.29 2.829999999999999 0.29 2.7299999999999995V2.579999999999999Q0.29 2.4699999999999998 0.35 2.4099999999999997Q0.41000000000000003 2.3499999999999996 0.51 2.3499999999999996H4.37Q4.48 2.3499999999999996 4.540000000000001 2.4099999999999997Q4.6000000000000005 2.4699999999999998 4.6000000000000005 2.579999999999999V2.7299999999999995Q4.6000000000000005 2.8499999999999996 4.585000000000001 2.9249999999999994Q4.57 2.999999999999999 4.53 3.0999999999999996L2.0 9.1Q1.96 9.18 1.905 9.265Q1.85 9.35 1.74 9.35Z"/>
  <path fill="#E30613" transform="translate(10.000,19.500) scale(0.4545)" d="M0,-10 L9,0 L0,10 L-9,0 Z"/>
  </g>
</svg>
