<svg xmlns="http://www.w3.org/2000/svg" viewBox="0 0 72 108">
  <rect fill="white" stroke="#555" stroke-width="0.5" x="1" y="1" width="70" height="106" rx="3" ry="3"/>
  <path fill="#000000" transform="translate(5.000,2.500)" d="M1.16 9.35Q1.06 9.35 1.0 9.29Q0.9400000000000001 9.23 0.9400000000000001 9.129999999999999V2.579999999999999Q0.9400000000000001 2.4699999999999998 1.0 2.4099999999999997Q1.06 2.3499999999999996 1.16 2.3499999999999996H1.34Q1.45 2.3499999999999996 1.51 2.4099999999999997Q1.57 2.4699999999999998 1.57 2.579999999999999V5.18L4.6000000000000005 2.499999999999999Q4.64 2.4699999999999998 4.73 2.4099999999999997Q4.82 2.3499999999999996 4.98 2.3499999999999996H5.14Q5.22 2.3499999999999996 5.279999999999999 2.4099999999999997Q5.34 2.4699999999999998 5.34 2.55Q5.34 2.63 5.29 2.6799999999999997L1.9000000000000001 5.699999999999999L5.5 9.01Q5.5600000000000005 9.07 5.5600000000000005 9.15Q5.5600000000000005 9.23 5.5 9.29Q5.44 9.35 5.36 9.35H5.19Q5.03 9.35 4.94 9.29Q4.8500000000000005 9.23 4.8100000000000005 9.2L1.57 6.24V9.129999999999999Q1.57 9.23 1.51 9.29Q1.45 9.35 1.34 9.35Z"/>
  <path fill="#000000" transform="translate(10.000,19.500) scale(0.4545)" d="M-5.5,1 A4,4 0 1,1 -5.5,-7 A4,4 0 1,1 -5.5,1 Z M5.5,1 A4,4 0 1,1 5.5,-7 A4,4 0 1,1 5.5,1 Z M0,7 A4,4 0 1,1 0,-1 A4,4 0 1,1 0,7 Z M-2.5,7 L2.5,7 L2.5,11 L-2.5,11 Z"/>
  <path fill="#000000" transform="translate(36.000,54.000) scale(1.6364)" d="M-5.5,1 A4,4 0 1,1 -5.5,-7 A4,4 0 1,1 -5.5,1 Z M5.5,1 A4,4 0 1,1 5.5,-7 A4,4 0 1,1 5.5,1 Z M0,7 A4,4 0 1,1 0,-1 A4,4 0 1,1 0,7 Z M-2.5,7 L2.5,7 L2.5,11 L-2.5,11 Z"/>
  <g transform="translate(72,108) rotate(180)">
  <path fill="#000000" transform="translate(5.000,2.500)" d="M1.16 9.35Q1.06 9.35 1.0 9.29Q0.9400000000000001 9.23 0.9400000000000001 9.129999999999999V2.579999999999999Q0.9400000000000001 2.4699999999999998 1.0 2.4099999999999997Q1.06 2.3499999999999996 1.16 2.3499999999999996H1.34Q1.45 2.3499999999999996 1.51 2.4099999999999997Q1.57 2.4699999999999998 1.57 2.579999999999999V5.18L4.6000000000000005 2.499999999999999Q4.64 2.4699999999999998 4.73 2.4099999999999997Q4.82 2.3499999999999996 4.98 2.3499999999999996H5.14Q5.22 2.3499999999999996 5.279999999999999 2.4099999999999997Q5.34 2.4699999999999998 5.34 2.55Q5.34 2.63 5.29 2.6799999999999997L1.9000000000000001 5.699999999999999L5.5 9.01Q5.5600000000000005 9.07 5.5600000000000005 9.15Q5.5600000000000005 9.23 5.5 9.29Q5.44 9.35 5.36 9.35H5.19Q5.03 9.35 4.94 9.29Q4.8500000000000005 9.23 4.8100000000000005 9.2L1.57 6.24V9.129999999999999Q1.57 9.23 1.51 9.29Q1.45 9.35 1.34 9.35Z"/>
  <path fill="#000000" transform="translate(10.000,19.500) scale(0.4545)" d="M-5.5,1 A4,4 0 1,1 -5.5,-7 A4,4 0 1,1 -5.5,1 Z M5.5,1 A4,4 0 1,1 5.5,-7 A4,4 0 1,1 5.5,1 Z M0,7 A4,4 0 1,1 0,-1 A4,4 0 1,1 0,7 Z M-2.5,7 L2.5,7 L2.5,11 L-2.5,11 Z"/>
  </g>
</svg>
