<svg xmlns="http://www.w3.org/2000/svg" viewBox="0 0 72 108">
  <rect fill="white" stroke="#cccccc" stroke-width="0.5" x="0.5" y="0.5" width="71" height="107" rx="4"/>
  <text x="4.5" y="13" font-family="Arial,Helvetica,sans-serif" font-size="11" font-weight="bold" fill="#007700">A</text>
  <path fill="#007700" d="M 0,10 C -1.5,8 -4,7 -6,7 C -10,7 -10,2 -6.5,0.5 C -11,-0.5 -11,-8 -5,-8 C -2.5,-8 -1,-6 0,-4.5 C 1,-6 2.5,-8 5,-8 C 11,-8 11,-0.5 6.5,0.5 C 10,2 10,7 6,7 C 4,7 1.5,8 0,10 Z" transform="translate(6.5,22.5) scale(0.43)"/>

  <g transform="translate(72,108) rotate(180)">
  <text x="4.5" y="13" font-family="Arial,Helvetica,sans-serif" font-size="11" font-weight="bold" fill="#007700">A</text>
  <path fill="#007700" d="M 0,10 C -1.5,8 -4,7 -6,7 C -10,7 -10,2 -6.5,0.5 C -11,-0.5 -11,-8 -5,-8 C -2.5,-8 -1,-6 0,-4.5 C 1,-6 2.5,-8 5,-8 C 11,-8 11,-0.5 6.5,0.5 C 10,2 10,7 6,7 C 4,7 1.5,8 0,10 Z" transform="translate(6.5,22.5) scale(0.43)"/>

  </g>
  <path fill="#007700" d="M 0,10 C -1.5,8 -4,7 -6,7 C -10,7 -10,2 -6.5,0.5 C -11,-0.5 -11,-8 -5,-8 C -2.5,-8 -1,-6 0,-4.5 C 1,-6 2.5,-8 5,-8 C 11,-8 11,-0.5 6.5,0.5 C 10,2 10,7 6,7 C 4,7 1.5,8 0,10 Z" transform="translate(36,56) scale(1.7)"/>

</svg>