<svg xmlns="http://www.w3.org/2000/svg" viewBox="0 0 72 108">
  <rect fill="white" stroke="#555" stroke-width="0.5" x="1" y="1" width="70" height="106" rx="3" ry="3"/>
  <path fill="#E30613" transform="translate(5.000,2.500)" d="M2.0100000000000002 9.35Q1.92 9.35 1.865 9.285Q1.81 9.219999999999999 1.81 9.129999999999999Q1.81 9.08 1.83 9.05Q1.85 9.02 1.86 9.0L3.44 6.779999999999999Q3.14 6.859999999999999 2.79 6.859999999999999Q2.19 6.859999999999999 1.745 6.659999999999999Q1.3 6.459999999999999 1.005 6.124999999999999Q0.71 5.789999999999999 0.565 5.385Q0.42 4.9799999999999995 0.42 4.56Q0.42 4.14 0.565 3.7299999999999995Q0.71 3.3199999999999994 1.005 2.9849999999999994Q1.3 2.6499999999999995 1.745 2.4499999999999993Q2.19 2.249999999999999 2.79 2.249999999999999Q3.39 2.249999999999999 3.835 2.4499999999999993Q4.28 2.6499999999999995 4.58 2.9849999999999994Q4.88 3.3199999999999994 5.025 3.7299999999999995Q5.17 4.14 5.17 4.56Q5.17 4.949999999999999 5.07 5.27Q4.97 5.59 4.835 5.83Q4.7 6.069999999999999 4.58 6.24L2.52 9.15Q2.48 9.2 2.415 9.274999999999999Q2.35 9.35 2.21 9.35ZM2.79 6.26Q3.2600000000000002 6.26 3.66 6.05Q4.0600000000000005 5.84 4.300000000000001 5.459999999999999Q4.54 5.079999999999999 4.54 4.56Q4.54 4.029999999999999 4.300000000000001 3.6499999999999995Q4.0600000000000005 3.2699999999999996 3.66 3.0599999999999996Q3.2600000000000002 2.8499999999999996 2.79 2.8499999999999996Q2.32 2.8499999999999996 1.9249999999999998 3.0599999999999996Q1.53 3.2699999999999996 1.29 3.6499999999999995Q1.05 4.029999999999999 1.05 4.56Q1.05 5.079999999999999 1.29 5.459999999999999Q1.53 5.84 1.9249999999999998 6.05Q2.32 6.26 2.79 6.26Z"/>
  <path fill="#E30613" transform="translate(10.000,19.500) scale(0.4545)" d="M0,-10 L9,0 L0,10 L-9,0 Z"/>
  <path fill="#E30613" transform="translate(36.000,54.000) scale(1.6364)" d="M0,-10 L9,0 L0,10 L-9,0 Z"/>
  <g transform="translate(72,108) rotate(180)">
  <path fill="#E30613" transform="translate(5.000,2.500)" d="M2.0100000000000002 9.35Q1.92 9.35 1.865 9.285Q1.81 9.219999999999999 1.81 9.129999999999999Q1.81 9.08 1.83 9.05Q1.85 9.02 1.86 9.0L3.44 6.779999999999999Q3.14 6.859999999999999 2.79 6.859999999999999Q2.19 6.859999999999999 1.745 6.659999999999999Q1.3 6.459999999999999 1.005 6.124999999999999Q0.71 5.789999999999999 0.565 5.385Q0.42 4.9799999999999995 0.42 4.56Q0.42 4.14 0.565 3.7299999999999995Q0.71 3.3199999999999994 1.005 2.9849999999999994Q1.3 2.6499999999999995 1.745 2.4499999999999993Q2.19 2.249999999999999 2.79 2.249999999999999Q3.39 2.249999999999999 3.835 2.4499999999999993Q4.28 2.6499999999999995 4.58 2.9849999999999994Q4.88 3.3199999999999994 5.025 3.7299999999999995Q5.17 4.14 5.17 4.56Q5.17 4.949999999999999 5.07 5.27Q4.97 5.59 4.835 5.83Q4.7 6.069999999999999 4.58 6.24L2.52 9.15Q2.48 9.2 2.415 9.274999999999999Q2.35 9.35 2.21 9.35ZM2.79 6.26Q3.2600000000000002 6.26 3.66 6.05Q4.0600000000000005 5.84 4.300000000000001 5.459999999999999Q4.54 5.079999999999999 4.54 4.56Q4.54 4.029999999999999 4.300000000000001 3.6499999999999995Q4.0600000000000005 3.2699999999999996 3.66 3.0599999999999996Q3.2600000000000002 2.8499999999999996 2.79 2.8499999999999996Q2.32 2.8499999999999996 1.9249999999999998 3.0599999999999996Q1.53 3.2699999999999996 1.29 3.6499999999999995Q1.05 4.029999999999999 1.05 4.56Q1.05 5.079999999999999 1.29 5.459999999999999Q1.53 5.84 1.9249999999999998 6.05Q2.32 6.26 2.79 6.26Z"/>
  <path fill="#E30613" transform="translate(10.000,19.500) scale(0.4545)" d="M0,-10 L9,0 L0,10 L-9,0 Z"/>
  </g>
</svg>
