<svg xmlns="http://www.w3.org/2000/svg" viewBox="0 0 120 168"><rect x="0" y="0" width="120" height="168" rx="8" fill="#fefefe"/><path d="M0 31.505V0h3.11v31.505H0zM12.328 0c-2.994 0-5.4 2.687-5.4 6.02v19.462c0 3.336 2.406 6.02 5.4 6.02h1.746c2.994 0 5.406-2.685 5.406-6.02V6.022C19.48 2.686 17.07 0 14.074 0h-1.746zm.904 2.978c1.768 0 3.19 1.337 3.19 3.002v19.723c0 1.664-1.424 3.006-3.19 3.006-1.77 0-3.19-1.35-3.19-3.01V5.98c-.003-1.665 1.42-3.002 3.19-3.002z" transform="matrix(2.1584 0 0 2.1584 38.977 26.000)" fill="#d40000"/><path d="M28.5 0l20.112 29L28.5 58 8.388 29z" transform="matrix(0.8966 0 0 0.8966 34.448 97.000)" fill="#d40000"/></svg>