<svg xmlns="http://www.w3.org/2000/svg" viewBox="0 0 120 168"><rect x="0" y="0" width="120" height="168" rx="8" fill="#fefefe"/><path d="M9.842 0C5.15.09 2.822 4.02 2.797 7.953L2.8 18.27H0v3.426h2.8s.05 1.564.042 2.503c-.04 4.63 1.6 7.44 4.797 8.22 3.06.56 4.66-.1 7-1.31.84.35 1.44 1.08 2.34 1.17 1.003.1 3.095.05 3.095.05l-.058-3.515-1.046-.15c-2-.036-2.865-.735-2.65-1.984.426-.81.487-1.403.526-2.387V6.85C16.794 2.57 13.3.037 9.84 0zm-.145 3.403c2.24-.035 4.104 2.573 4.053 5.246l.035 13.48c.073.84-.062 1.67-.437 2.26-.295-.86-4.93-5.6-7.248-5.38 0 0-.094.24-.16-5.69-.028-2.91-.793-7.257 1.822-9.218.653-.48 1.308-.7 1.935-.708zm2.34 24.628c.206.42-.555.83-1.366 1.06-2.29.64-4.54-.79-4.61-4.08-.02-1-.09-2.072.268-2.23 1.053-.474 5.098 4.01 5.72 5.26z" transform="matrix(2.0619 0 0 2.0619 39.305 26.000)" fill="#d40000"/><path d="M16.49.2c7.12-.476 10.832 5.638 11.557 10.455.432.766.668.55.834-.042.35-6.186 5.86-11.24 10.96-10.55 8.3.108 13.35 9.393 11.93 17.25-1.73 9.6-6.875 15.38-10.77 21.333C36.586 44.81 30.656 53.716 28.74 58c0 0-6.027-9.222-13.87-20.067-5.243-7.252-9.44-15.11-9.83-21.875-.447-7.73 2.71-14.66 11.45-15.86z" transform="matrix(0.8870 0 0 0.8870 34.374 97.556)" fill="#d40000"/></svg>