<svg xmlns="http://www.w3.org/2000/svg" viewBox="0 0 120 168"><rect x="0" y="0" width="120" height="168" rx="8" fill="#fefefe"/><path d="M0 25.663L2.578 23.8c2.24 3.577 4.74 5.935 8.566 5.53 5.742-.39 8.12-6.296 6.918-10.753-1.16-3.99-5.916-5.938-9.694-3.808-.892.5-1.922 1.12-1.922 1.12L5.1 13.7l8.87-10.317H4.346v4.27H.654V0h18.812v2.6s-5.04 5.13-6.707 7.94c4.1.148 7.41 2.7 8.59 6.737.69 2.124.38 6.984-.527 9.076-1.51 3.492-5.65 6.325-9.434 6.488-6.34.42-9.71-3.94-11.39-7.17z" transform="matrix(2.0444 0 0 2.0444 37.473 26.000)" fill="#d40000"/><path d="M28.5 0l20.112 29L28.5 58 8.388 29z" transform="matrix(0.8966 0 0 0.8966 34.448 97.000)" fill="#d40000"/></svg>