<svg xmlns="http://www.w3.org/2000/svg" viewBox="0 0 120 168"><rect x="0" y="0" width="120" height="168" rx="8" fill="#fefefe"/><path d="m10.34,31.817l0,-2.812l2.585,0l0,-4.635l-12.925,0l0,-3.27l13.986,-21.1l2.285,0.008l0,21.09l3.96,0l0,3.27l-3.96,0l-0.07,4.638l2.166,0l0,2.812l-8.027,0l0,-0.001zm2.585,-24.097l-8.88,13.377l8.88,0l0,-13.377z" transform="matrix(2.1372 0 0 2.1372 38.382 26.000)" fill="#1a1a1a"/><path d="m26.406,40.187c0.015,-1.98 -1.56,-2.017 -1.542,-0.573c-0.133,7.257 -6.31,10.83 -10.8,9.982c-6.92,-1.307 -9.128,-8.13 -9.06,-12.148c0.2,-12.402 12.77,-21.548 24.11,-37.448c8.31,14.35 22.03,25.623 22.84,36.717c1.08,14.75 -17.71,20.25 -20.394,3.06c-0.172,-1.214 -1.612,-1.76 -1.5,-0.063c0.408,4.71 -0.17,6.674 5.18,18.287l-13.99,0c3.1,-5.42 4.943,-12.09 5.154,-17.81l0.002,-0.004z" transform="matrix(0.8965 0 0 0.8965 34.014 97.000)" fill="#1a1a1a"/></svg>