<?xml version="1.0" encoding="UTF-8" standalone="no"?>
<svg
   width="580"
   height="800"
   fill="none"
   viewBox="0 0 580 800"
   version="1.1"
   id="svg3"
   sodipodi:docname="cardBackground.svg"
   inkscape:version="1.3.2 (091e20ef0f, 2023-11-25, custom)"
   xmlns:inkscape="http://www.inkscape.org/namespaces/inkscape"
   xmlns:sodipodi="http://sodipodi.sourceforge.net/DTD/sodipodi-0.dtd"
   xmlns="http://www.w3.org/2000/svg"
   xmlns:svg="http://www.w3.org/2000/svg">
  <defs
     id="defs3" />
  <sodipodi:namedview
     id="namedview3"
     pagecolor="#ffffff"
     bordercolor="#000000"
     borderopacity="0.25"
     inkscape:showpageshadow="2"
     inkscape:pageopacity="0.0"
     inkscape:pagecheckerboard="0"
     inkscape:deskcolor="#d1d1d1"
     showgrid="false"
     inkscape:zoom="8.46"
     inkscape:cx="593.91253"
     inkscape:cy="19.739953"
     inkscape:window-width="1920"
     inkscape:window-height="1052"
     inkscape:window-x="0"
     inkscape:window-y="0"
     inkscape:window-maximized="1"
     inkscape:current-layer="svg3" />
  <g
     id="g3"
     transform="translate(-110.20704,0.203162)">
    <path
       fill="#e6eef4"
       d="M 662.069,0 H 137.931 c -15.24,0 -27.586,12.345 -27.586,27.586 v 744.828 c 0,15.241 12.346,27.586 27.586,27.586 h 524.138 c 15.24,0 27.586,-12.345 27.586,-27.586 V 27.586 C 689.655,12.346 677.311,0 662.069,0 Z"
       id="path1" />
    <path
       fill="#d71e00"
       d="m 634.483,758.62 c 7.617,0 13.793,-6.175 13.793,-13.793 V 55.172 c 0,-7.617 -6.175,-13.794 -13.793,-13.794 H 165.517 c -7.617,0 -13.794,6.175 -13.794,13.794 v 689.656 c 0,7.617 6.175,13.794 13.794,13.794 H 634.483 Z M 179.311,744.828 V 55.172 L 165.517,68.966 H 634.483 L 620.689,55.172 v 689.656 l 13.794,-13.794 H 165.517 Z"
       id="path2" />
    <path
       fill="#d71e00"
       d="m 155.767,163.088 c -5.386,5.385 -5.386,14.12 0,19.506 5.386,5.386 14.12,5.386 19.506,0 L 292.942,64.925 c 5.386,-5.386 5.386,-14.12 0,-19.506 -5.386,-5.386 -14.12,-5.386 -19.506,0 z M 409.973,64.933 c 5.386,-5.386 5.386,-14.12 0,-19.506 -5.386,-5.386 -14.12,-5.386 -19.506,0 L 155.764,280.13 c -5.386,5.386 -5.386,14.12 0,19.506 5.386,5.386 14.12,5.386 19.506,0 z m 117.048,-0.01 c 5.386,-5.386 5.386,-14.12 0,-19.506 -5.386,-5.386 -14.12,-5.386 -19.506,0 L 155.764,397.17 c -5.386,5.386 -5.386,14.12 0,19.506 5.386,5.386 14.12,5.386 19.506,0 z m 117.035,0.004 c 5.386,-5.386 5.386,-14.12 0,-19.507 -5.386,-5.386 -14.121,-5.386 -19.507,0 L 155.764,514.206 c -5.386,5.386 -5.386,14.121 0,19.506 5.386,5.386 14.12,5.386 19.506,0 z m 0.179,116.857 c 5.386,-5.386 5.386,-14.12 0,-19.506 -5.385,-5.386 -14.12,-5.386 -19.506,0 L 155.764,631.244 c -5.386,5.386 -5.386,14.12 0,19.506 5.386,5.386 14.12,5.386 19.506,0 z m 0.007,117.035 c 5.386,-5.386 5.386,-14.121 0,-19.507 -5.386,-5.385 -14.12,-5.385 -19.506,0 L 179.37,724.677 c -5.386,5.385 -5.386,14.12 0,19.506 5.386,5.386 14.12,5.386 19.506,0 z m -358.23,436.254 c -5.386,5.386 -5.386,14.121 0,19.507 5.386,5.386 14.12,5.386 19.506,0 L 644.236,415.863 c 5.385,-5.386 5.385,-14.121 0,-19.507 -5.386,-5.386 -14.121,-5.386 -19.507,0 z m 117.035,0.004 c -5.386,5.386 -5.386,14.12 0,19.506 5.386,5.386 14.12,5.386 19.506,0 L 644.236,532.9 c 5.386,-5.386 5.386,-14.12 0,-19.506 -5.386,-5.386 -14.12,-5.386 -19.506,0 z m 241.195,-85.144 c 5.386,-5.386 5.386,-14.12 0,-19.506 -5.386,-5.386 -14.12,-5.386 -19.506,0 L 520.087,735.075 c -5.386,5.386 -5.386,14.12 0,19.506 5.386,5.386 14.121,5.386 19.507,0 z"
       id="path3" />
  </g>
</svg>
