<?xml version="1.0" encoding="UTF-8" standalone="no"?>
<!-- Uploaded to: SVG Repo, www.svgrepo.com, Generator: SVG Repo Mixer Tools -->

<svg
   fill="#000000"
   height="800px"
   width="800px"
   version="1.1"
   id="Layer_1"
   viewBox="0 0 512 512"
   xml:space="preserve"
   sodipodi:docname="chip.svg"
   inkscape:version="1.3.2 (091e20ef0f, 2023-11-25, custom)"
   xmlns:inkscape="http://www.inkscape.org/namespaces/inkscape"
   xmlns:sodipodi="http://sodipodi.sourceforge.net/DTD/sodipodi-0.dtd"
   xmlns="http://www.w3.org/2000/svg"
   xmlns:svg="http://www.w3.org/2000/svg"><defs
   id="defs4" /><sodipodi:namedview
   id="namedview4"
   pagecolor="#ffffff"
   bordercolor="#000000"
   borderopacity="0.25"
   inkscape:showpageshadow="2"
   inkscape:pageopacity="0.0"
   inkscape:pagecheckerboard="0"
   inkscape:deskcolor="#d1d1d1"
   showgrid="false"
   inkscape:zoom="1.0575"
   inkscape:cx="400"
   inkscape:cy="400"
   inkscape:window-width="1522"
   inkscape:window-height="1080"
   inkscape:window-x="0"
   inkscape:window-y="0"
   inkscape:window-maximized="0"
   inkscape:current-layer="Layer_1" />

<g
   id="g5"
   inkscape:label="Chip"
   style="fill:#a0acc4;fill-opacity:1"><g
     id="g2"
     style="fill:#a0acc4;fill-opacity:1">
	<g
   id="g1"
   style="fill:#a0acc4;fill-opacity:1">
		<path
   d="M320.931,199.65c-12.096-12.322-24.894-23.893-36.035-32.583c-17.462-13.618-24.614-15.363-28.896-15.363    s-11.434,1.745-28.896,15.363c-11.141,8.69-23.939,20.262-36.035,32.583c-18.243,18.581-48.847,53.076-48.847,75.313    c0,36.597,28.854,66.37,65.049,66.37c14.035,0,28.581-4.648,38.062-12.808v31.771c0,5.236,4.245,9.481,9.482,9.481    s9.482-4.245,9.482-9.481v-31.771c11.852,8.16,25.213,12.808,39.248,12.808c36.194,0,65.938-29.773,65.938-66.37    C369.482,252.727,339.174,218.231,320.931,199.65z M304.137,322.37c-16.497,0-31.444-8.574-39.987-22.935    c-1.71-2.873-4.806-4.634-8.149-4.634c-3.344,0-6.44,1.762-8.149,4.634c-8.543,14.361-23.491,22.935-39.987,22.935    c-25.738,0-46.678-21.266-46.678-47.407c0-8.593,12.873-30.539,41.632-60.201c25.715-26.521,47.275-42.005,53.183-43.977    c5.907,1.972,27.468,17.456,53.183,43.977c28.759,29.662,41.632,51.609,41.632,60.201    C350.815,301.104,329.875,322.37,304.137,322.37z"
   id="path1"
   style="fill:#a0acc4;fill-opacity:1" />
	</g>
</g><g
     id="g4"
     style="fill:#a0acc4;fill-opacity:1">
	<g
   id="g3"
   style="fill:#a0acc4;fill-opacity:1">
		<path
   d="M256,0C114.841,0,0,114.84,0,256s114.841,256,256,256s256-114.84,256-256S397.159,0,256,0z M461.255,137.544    l-69.918,31.074c-12.42-19.169-28.786-35.535-47.955-47.954l31.074-69.919C410.414,71.579,440.421,101.586,461.255,137.544z     M398.222,256c0,78.421-63.801,142.222-142.222,142.222S113.778,334.421,113.778,256S177.579,113.778,256,113.778    S398.222,177.579,398.222,256z M256,18.963c36.355,0,70.82,8.236,101.64,22.926l-30.825,69.356    c-21.389-10.507-45.419-16.43-70.815-16.43c-25.396,0-49.426,5.924-70.815,16.43L154.36,41.889    C185.18,27.199,219.645,18.963,256,18.963z M137.544,50.745l31.074,69.919c-19.169,12.419-35.535,28.785-47.955,47.953    l-69.918-31.074C71.579,101.586,101.586,71.579,137.544,50.745z M18.963,256c0-36.357,8.236-70.82,22.926-101.641l69.356,30.826    c-10.507,21.389-16.43,45.419-16.43,70.815c0,25.396,5.924,49.426,16.43,70.815l-69.356,30.826    C27.199,326.82,18.963,292.357,18.963,256z M50.745,374.456l69.918-31.074c12.42,19.169,28.786,35.535,47.955,47.953    l-31.074,69.919C101.586,440.421,71.579,410.414,50.745,374.456z M256,493.037c-36.355,0-70.82-8.236-101.64-22.926l30.825-69.356    c21.389,10.507,45.419,16.43,70.815,16.43c25.396,0,49.426-5.924,70.815-16.43l30.825,69.356    C326.82,484.801,292.355,493.037,256,493.037z M374.456,461.255l-31.074-69.919c19.169-12.419,35.535-28.785,47.955-47.954    l69.918,31.074C440.421,410.414,410.414,440.421,374.456,461.255z M400.755,326.815c10.507-21.389,16.43-45.419,16.43-70.815    c0-25.396-5.924-49.426-16.43-70.815l69.356-30.826c14.69,30.822,22.926,65.285,22.926,101.641s-8.236,70.82-22.926,101.641    L400.755,326.815z"
   id="path2"
   style="fill:#a0acc4;fill-opacity:1" />
	</g>
</g></g>
</svg>
