<svg xmlns="http://www.w3.org/2000/svg" width="128" height="128" fill="none" viewBox="0 0 128 128">
  <path fill="#CDD3E0" d="M64 12a52 52 0 1 0 52 52 52.062 52.062 0 0 0-52-52Zm44 52a43.79 43.79 0 0 1-1.665 12H87.08a78.719 78.719 0 0 0 0-24h19.255A43.79 43.79 0 0 1 108 64ZM51 84h26a57.555 57.555 0 0 1-13 22.5A57.639 57.639 0 0 1 51 84Zm-1.95-8a70.42 70.42 0 0 1 0-24h29.94a70.42 70.42 0 0 1 0 24H49.05ZM20 64a43.805 43.805 0 0 1 1.665-12H40.92a78.719 78.719 0 0 0 0 24H21.665A43.805 43.805 0 0 1 20 64Zm57-20H51a57.555 57.555 0 0 1 13-22.5A57.635 57.635 0 0 1 77 44Zm26.165 0h-17.81a67.64 67.64 0 0 0-11.15-22.8 44.144 44.144 0 0 1 28.98 22.8h-.02Zm-49.37-22.8A67.641 67.641 0 0 0 42.645 44h-17.83a44.146 44.146 0 0 1 28.98-22.8ZM24.815 84h17.83a67.641 67.641 0 0 0 11.15 22.8A44.152 44.152 0 0 1 24.815 84Zm49.39 22.8A67.64 67.64 0 0 0 85.355 84h17.83a44.14 44.14 0 0 1-28.98 22.8Z"/>
</svg>
