<svg xmlns="http://www.w3.org/2000/svg" width="128" height="128" fill="none" viewBox="0 0 128 128">
  <path fill="#CDD3E0" d="M116 56H68V44h4a8 8 0 0 0 8-8V20a8 8 0 0 0-8-8H56a8 8 0 0 0-8 8v16a8 8 0 0 0 8 8h4v12H12a4 4 0 1 0 0 8h16v16h-4a8 8 0 0 0-8 8v16a8 8 0 0 0 8 8h16a8.001 8.001 0 0 0 8-8V88a8 8 0 0 0-8-8h-4V64h56v16h-4a8 8 0 0 0-8 8v16a8 8 0 0 0 8 8h16a8 8 0 0 0 8-8V88a8.001 8.001 0 0 0-8-8h-4V64h16a3.998 3.998 0 0 0 2.828-6.828A3.998 3.998 0 0 0 116 56ZM56 20h16v16H56V20Zm-16 84H24V88h16v16Zm64 0H88V88h16v16Z"/>
</svg>
