<svg xmlns="http://www.w3.org/2000/svg" width="128" height="128" fill="none" viewBox="0 0 128 128">
  <path fill="#CDD3E0" d="M100.385 26.945A51.635 51.635 0 0 0 64 12h-.535A52 52 0 0 0 12 64c0 21.5 13.29 39.53 34.68 47.085a15.994 15.994 0 0 0 14.562-2.028A16.01 16.01 0 0 0 68 96a8 8 0 0 1 8-8h23.105a15.903 15.903 0 0 0 15.6-12.44 52.2 52.2 0 0 0 1.295-12 51.63 51.63 0 0 0-15.615-36.615Zm6.5 46.855a7.942 7.942 0 0 1-7.78 6.2H76a16 16 0 0 0-16 16 8 8 0 0 1-10.655 7.535C31.245 97.15 20 82 20 64a44 44 0 0 1 43.545-44h.45a44.175 44.175 0 0 1 44 43.625 44.418 44.418 0 0 1-1.09 10.175h-.02ZM70 38a6 6 0 1 1-12 0 6 6 0 0 1 12 0ZM48 50a6 6 0 1 1-12 0 6 6 0 0 1 12 0Zm0 28a6 6 0 1 1-12 0 6 6 0 0 1 12 0Zm44-28a6 6 0 1 1-12 0 6 6 0 0 1 12 0Z"/>
</svg>
