<svg xmlns="http://www.w3.org/2000/svg" width="128" height="128" fill="none" viewBox="0 0 128 128">
  <path fill="#CDD3E0" d="M118.83 9.17A4.01 4.01 0 0 0 116 7.997a4.002 4.002 0 0 0-2.83 1.173l-26.2 26.205-2.685-2.69a16.025 16.025 0 0 0-22.63 0L50 44.345l-3.17-3.175a4.002 4.002 0 0 0-5.66 5.66L44.345 50l-11.66 11.655a16 16 0 0 0 0 22.63l2.69 2.685-26.205 26.2A4.01 4.01 0 0 0 7.998 116 4.004 4.004 0 0 0 12 120.002a4.004 4.004 0 0 0 2.83-1.172l26.2-26.205 2.685 2.69a16 16 0 0 0 22.63 0L78 83.655l3.17 3.175a4.003 4.003 0 0 0 5.66-5.66L83.655 78l11.66-11.655a16 16 0 0 0 0-22.63l-2.69-2.685 26.205-26.2a3.993 3.993 0 0 0 1.173-2.83 4.006 4.006 0 0 0-1.173-2.83Zm-58.145 80.5a8 8 0 0 1-11.31 0l-11.03-11.045a8 8 0 0 1 0-11.31L50 55.655 72.345 78l-11.66 11.67Zm28.97-28.97L78 72.345 55.655 50l11.66-11.655a8 8 0 0 1 11.31 0l11.03 11a8.001 8.001 0 0 1 0 11.34v.015Zm-45.37-43.2a4.006 4.006 0 1 1 7.43-3l4 10a4.006 4.006 0 0 1-7.43 3l-4-10Zm-32 29a4 4 0 0 1 5.215-2.215l10 4a4.008 4.008 0 0 1-1.464 7.721 4.006 4.006 0 0 1-1.536-.291l-10-4a4 4 0 0 1-2.215-5.215Zm103.43 35a3.999 3.999 0 0 1-5.2 2.23l-10-4a4.01 4.01 0 1 1 2.985-7.445l10 4a4.005 4.005 0 0 1 2.508 3.679 4.003 4.003 0 0 1-.293 1.536Zm-32 29.03a4.001 4.001 0 0 1-7.43 2.97l-4-10a4.006 4.006 0 1 1 7.43-3l4 10.03Z"/>
</svg>
