<svg xmlns="http://www.w3.org/2000/svg" width="128" height="128" fill="none" viewBox="0 0 128 128">
  <path fill="#CDD3E0" d="M64 40a24 24 0 1 0 24 24 24.025 24.025 0 0 0-24-24Zm0 40a16 16 0 1 1 0-32 16 16 0 0 1 0 32Zm44-14.92c.02-.72.02-1.44 0-2.16l7.46-9.32a3.994 3.994 0 0 0 .74-3.53 53.633 53.633 0 0 0-5.44-13.125 4.003 4.003 0 0 0-3-1.965L95.9 33.66a39.73 39.73 0 0 0-1.5-1.5L93 20.27a4 4 0 0 0-1.97-3 53.854 53.854 0 0 0-13.125-5.435 4 4 0 0 0-3.53.745L65.08 20h-2.16l-9.32-7.445a3.999 3.999 0 0 0-3.53-.74 53.8 53.8 0 0 0-13.125 5.44 4 4 0 0 0-1.965 3l-1.32 11.88c-.52.497-1.02.997-1.5 1.5L20.27 35a4 4 0 0 0-3 1.97 53.858 53.858 0 0 0-5.435 13.125 4 4 0 0 0 .745 3.53L20 62.92v2.16l-7.445 9.32a4 4 0 0 0-.74 3.53 53.608 53.608 0 0 0 5.44 13.125 4 4 0 0 0 3 1.965l11.86 1.32c.496.52.996 1.02 1.5 1.5L35 107.73a4 4 0 0 0 1.97 3 53.86 53.86 0 0 0 13.125 5.435 4.006 4.006 0 0 0 3.53-.745L62.92 108c.72.02 1.44.02 2.16 0l9.32 7.46a3.995 3.995 0 0 0 3.53.74 53.593 53.593 0 0 0 13.125-5.44 4.004 4.004 0 0 0 1.965-3l1.32-11.86a39.73 39.73 0 0 0 1.5-1.5l11.89-1.4a4 4 0 0 0 3-1.97 53.858 53.858 0 0 0 5.435-13.125 4.006 4.006 0 0 0-.745-3.53L108 65.08Zm-8.05-3.25a36.835 36.835 0 0 1 0 4.34c-.06.99.25 1.966.87 2.74l7.095 8.865a45.814 45.814 0 0 1-3.115 7.5l-11.3 1.28a4 4 0 0 0-2.55 1.32 37.026 37.026 0 0 1-3.07 3.07 4 4 0 0 0-1.32 2.55l-1.255 11.29a45.705 45.705 0 0 1-7.5 3.115l-8.87-7.095a4 4 0 0 0-2.5-.875h-.24a36.964 36.964 0 0 1-4.34 0c-.99-.06-1.966.25-2.74.87l-8.89 7.1a45.814 45.814 0 0 1-7.5-3.115L41.445 93.5a4 4 0 0 0-1.32-2.55 37.072 37.072 0 0 1-3.07-3.07 4 4 0 0 0-2.55-1.32l-11.29-1.26a45.661 45.661 0 0 1-3.115-7.5l7.095-8.87a4 4 0 0 0 .87-2.74 36.964 36.964 0 0 1 0-4.34 4 4 0 0 0-.87-2.74L20.1 50.225a45.797 45.797 0 0 1 3.115-7.5l11.285-1.28a4 4 0 0 0 2.55-1.32 37.072 37.072 0 0 1 3.07-3.07 4 4 0 0 0 1.325-2.555L42.7 23.215a45.668 45.668 0 0 1 7.5-3.115l8.87 7.095a4 4 0 0 0 2.74.87 36.964 36.964 0 0 1 4.34 0 4 4 0 0 0 2.74-.87l8.885-7.095a45.784 45.784 0 0 1 7.5 3.115l1.28 11.285a4 4 0 0 0 1.32 2.55 37.04 37.04 0 0 1 3.07 3.07 4 4 0 0 0 2.55 1.32l11.29 1.255a45.705 45.705 0 0 1 3.115 7.5l-7.095 8.87a3.998 3.998 0 0 0-.87 2.765h.015Z"/>
</svg>
