<svg xmlns="http://www.w3.org/2000/svg" width="128" height="128" fill="none" viewBox="0 0 128 128">
  <path fill="#CDD3E0" d="M65.79 8.425a4 4 0 0 0-3.58 0C60.16 9.45 12 33.92 12 68a28.001 28.001 0 0 0 37.075 26.5l-4.905 16.35A3.999 3.999 0 0 0 48 116h32a3.998 3.998 0 0 0 3.83-5.15L78.925 94.5A28.001 28.001 0 0 0 116 68c0-34.08-48.16-58.55-50.21-59.575ZM88 88a20 20 0 0 1-13.145-4.925 4 4 0 0 0-6.46 4.165l6.23 20.76h-21.25l6.23-20.76a4 4 0 0 0-6.46-4.165A20 20 0 0 1 20 68c0-14.94 12.205-28.275 22.445-36.83A139.562 139.562 0 0 1 64 16.53a139.562 139.562 0 0 1 21.555 14.64C104.105 46.67 108 59.755 108 68a19.999 19.999 0 0 1-20 20Z"/>
</svg>
